<svg width="384" height="116" viewBox="0 0 384 116" fill="none" xmlns="http://www.w3.org/2000/svg">
<path d="M0 10.601C0 8.99927 0.263423 7.54825 0.790268 6.24798C1.31711 4.92887 2.04152 3.80763 2.9635 2.88425C3.9043 1.96087 5.01444 1.2542 6.29392 0.764247C7.59221 0.255447 9.01281 0.00104689 10.5557 0.00104689C12.1174 -0.0177973 13.5474 0.217759 14.8457 0.707715C16.144 1.17883 17.2636 1.87607 18.2044 2.79945C19.1452 3.72283 19.879 4.83465 20.4058 6.13491C20.9327 7.43518 21.1961 8.8862 21.1961 10.488C21.1961 12.0521 20.9327 13.4748 20.4058 14.7562C19.879 16.0377 19.1452 17.1401 18.2044 18.0634C17.2636 18.9868 16.144 19.7123 14.8457 20.24C13.5474 20.7488 12.1174 21.0126 10.5557 21.0314C9.01281 21.0314 7.59221 20.7865 6.29392 20.2965C5.01444 19.7877 3.9043 19.081 2.9635 18.1765C2.04152 17.2531 1.31711 16.1507 0.790268 14.8693C0.263423 13.5879 0 12.1651 0 10.601ZM3.72555 10.3749C3.72555 11.449 3.88548 12.4384 4.20535 13.3429C4.54404 14.2474 5.01444 15.0295 5.61655 15.689C6.21865 16.3486 6.93366 16.8668 7.76156 17.2437C8.60827 17.6206 9.54907 17.809 10.5839 17.809C11.6188 17.809 12.5596 17.6206 13.4063 17.2437C14.253 16.8668 14.9775 16.3486 15.5796 15.689C16.1817 15.0295 16.6427 14.2474 16.9625 13.3429C17.3012 12.4384 17.4706 11.449 17.4706 10.3749C17.4706 9.37616 17.3012 8.44336 16.9625 7.57651C16.6427 6.70967 16.1817 5.95589 15.5796 5.31518C14.9775 4.65562 14.253 4.14682 13.4063 3.78878C12.5596 3.41189 11.6188 3.22345 10.5839 3.22345C9.54907 3.22345 8.60827 3.41189 7.76156 3.78878C6.93366 4.14682 6.21865 4.65562 5.61655 5.31518C5.01444 5.95589 4.54404 6.70967 4.20535 7.57651C3.88548 8.44336 3.72555 9.37616 3.72555 10.3749Z" transform="translate(135.119 32) scale(2)" fill="#3291E9"/>
<path d="M25.2807 6.95465H28.4982V8.98985H28.5547C29.0439 8.16069 29.7025 7.55767 30.5304 7.18078C31.3583 6.80389 32.252 6.61545 33.2116 6.61545C34.2465 6.61545 35.1779 6.80389 36.0058 7.18078C36.8337 7.53882 37.5393 8.0382 38.1226 8.67891C38.7059 9.31963 39.148 10.0734 39.4491 10.9402C39.7501 11.8071 39.9007 12.7399 39.9007 13.7386C39.9007 14.7374 39.7407 15.6702 39.4209 16.537C39.101 17.4039 38.6494 18.1577 38.0661 18.7984C37.5016 19.4391 36.8149 19.9479 36.0058 20.3248C35.1967 20.6828 34.3124 20.8618 33.3527 20.8618C32.713 20.8618 32.1485 20.7959 31.6593 20.664C31.1701 20.5321 30.7373 20.3625 30.361 20.1552C29.9847 19.9479 29.6648 19.7312 29.4014 19.505C29.138 19.2601 28.9216 19.0245 28.7523 18.7984H28.6676V26.9674H25.2807V6.95465ZM36.5138 13.7386C36.5138 13.211 36.4197 12.7022 36.2316 12.2122C36.0622 11.7223 35.7988 11.2889 35.4413 10.912C35.1026 10.5351 34.6887 10.2336 34.1995 10.0074C33.7102 9.78131 33.1552 9.66825 32.5342 9.66825C31.9133 9.66825 31.3583 9.78131 30.869 10.0074C30.3798 10.2336 29.9565 10.5351 29.599 10.912C29.2603 11.2889 28.9969 11.7223 28.8087 12.2122C28.6394 12.7022 28.5547 13.211 28.5547 13.7386C28.5547 14.2663 28.6394 14.7751 28.8087 15.265C28.9969 15.755 29.2603 16.1884 29.599 16.5653C29.9565 16.9422 30.3798 17.2437 30.869 17.4698C31.3583 17.696 31.9133 17.809 32.5342 17.809C33.1552 17.809 33.7102 17.696 34.1995 17.4698C34.6887 17.2437 35.1026 16.9422 35.4413 16.5653C35.7988 16.1884 36.0622 15.755 36.2316 15.265C36.4197 14.7751 36.5138 14.2663 36.5138 13.7386Z" transform="translate(135.119 32) scale(2)" fill="#3291E9"/>
<path d="M46.7759 14.9258C46.8888 15.9434 47.2839 16.7349 47.9613 17.3002C48.6387 17.8656 49.4572 18.1482 50.4168 18.1482C51.2635 18.1482 51.9691 17.9786 52.5336 17.6394C53.1169 17.2814 53.6249 16.8386 54.0577 16.3109L56.4849 18.1482C55.6947 19.1282 54.8103 19.8254 53.8319 20.24C52.8535 20.6546 51.828 20.8618 50.7555 20.8618C49.7394 20.8618 48.7798 20.6922 47.8767 20.353C46.9735 20.0138 46.1926 19.5333 45.5341 18.9114C44.8755 18.2896 44.3487 17.5452 43.9535 16.6784C43.5772 15.7927 43.3891 14.8128 43.3891 13.7386C43.3891 12.6645 43.5772 11.694 43.9535 10.8272C44.3487 9.94149 44.8755 9.18771 45.5341 8.56585C46.1926 7.94398 46.9735 7.46345 47.8767 7.12425C48.7798 6.78505 49.7394 6.61545 50.7555 6.61545C51.6963 6.61545 52.5524 6.78505 53.3239 7.12425C54.1141 7.4446 54.7821 7.91571 55.3277 8.53758C55.8922 9.15945 56.325 9.93207 56.626 10.8554C56.9459 11.76 57.1058 12.8058 57.1058 13.993V14.9258H46.7759ZM53.719 12.3818C53.7002 11.3831 53.3897 10.601 52.7876 10.0357C52.1855 9.45154 51.3482 9.15945 50.2757 9.15945C49.2596 9.15945 48.4505 9.45154 47.8484 10.0357C47.2651 10.6199 46.9076 11.4019 46.7759 12.3818H53.719Z" transform="translate(135.119 32) scale(2)" fill="#3291E9"/>
<path d="M61.2811 6.95465H64.4986V9.13118H64.555C64.8749 8.45278 65.3641 7.8686 66.0227 7.37865C66.6812 6.86985 67.575 6.61545 68.704 6.61545C69.6071 6.61545 70.3692 6.7662 70.9901 7.06771C71.6298 7.36923 72.1473 7.76496 72.5424 8.25491C72.9375 8.74487 73.2198 9.3102 73.3891 9.95091C73.5585 10.5916 73.6431 11.2606 73.6431 11.9578V20.5226H70.2563V13.6538C70.2563 13.277 70.2374 12.8624 70.1998 12.4101C70.1622 11.939 70.0587 11.5056 69.8894 11.1098C69.7388 10.6953 69.4942 10.3561 69.1555 10.0922C68.8168 9.80958 68.3559 9.66825 67.7726 9.66825C67.2081 9.66825 66.7283 9.76247 66.3332 9.95091C65.9568 10.1394 65.637 10.3938 65.3735 10.7141C65.1289 11.0345 64.9502 11.4019 64.8373 11.8165C64.7244 12.2311 64.6679 12.6645 64.6679 13.1168V20.5226H61.2811V6.95465Z" transform="translate(135.119 32) scale(2)" fill="#3291E9"/>
<path d="M88.5999 4.80638C88.2236 4.25989 87.7155 3.86416 87.0758 3.61918C86.4549 3.35536 85.7963 3.22345 85.1001 3.22345C84.6862 3.22345 84.2816 3.27056 83.8865 3.36478C83.5102 3.459 83.1621 3.60976 82.8422 3.81705C82.5412 4.02434 82.2966 4.29758 82.1084 4.63678C81.9202 4.95714 81.8262 5.34345 81.8262 5.79571C81.8262 6.47411 82.0614 6.99234 82.5318 7.35038C83.0022 7.70842 83.5854 8.01936 84.2816 8.28318C84.9778 8.547 85.7399 8.8014 86.5678 9.04638C87.3957 9.29136 88.1577 9.63056 88.8539 10.064C89.5501 10.4974 90.1334 11.0722 90.6038 11.7882C91.0742 12.5043 91.3094 13.456 91.3094 14.6432C91.3094 15.7173 91.1118 16.6595 90.7167 17.4698C90.3215 18.2613 89.7853 18.9209 89.1079 19.4485C88.4493 19.9762 87.6779 20.3719 86.7936 20.6357C85.9092 20.8995 84.9778 21.0314 83.9994 21.0314C82.7575 21.0314 81.5627 20.8242 80.415 20.4096C79.2672 19.995 78.2794 19.2978 77.4515 18.3178L80.1327 15.7173C80.5655 16.3769 81.13 16.8951 81.8262 17.272C82.5412 17.63 83.2938 17.809 84.0841 17.809C84.498 17.809 84.912 17.7525 85.3259 17.6394C85.7399 17.5264 86.1162 17.3568 86.4549 17.1306C86.7936 16.9045 87.0664 16.6218 87.2734 16.2826C87.4803 15.9246 87.5838 15.5194 87.5838 15.0672C87.5838 14.3322 87.3486 13.7669 86.8782 13.3712C86.4078 12.9754 85.8245 12.6457 85.1283 12.3818C84.4322 12.0992 83.6701 11.8354 82.8422 11.5904C82.0143 11.3454 81.2523 11.0156 80.5561 10.601C79.8599 10.1676 79.2766 9.60229 78.8062 8.90505C78.3358 8.18896 78.1006 7.23731 78.1006 6.05011C78.1006 5.01367 78.3076 4.11856 78.7215 3.36478C79.1543 2.611 79.7094 1.98914 80.3867 1.49918C81.0829 0.990381 81.8732 0.613492 82.7575 0.368514C83.6419 0.123536 84.545 0.00104689 85.467 0.00104689C86.5207 0.00104689 87.5368 0.161225 88.5152 0.481581C89.5124 0.801937 90.4062 1.32958 91.1965 2.06451L88.5999 4.80638Z" transform="translate(135.119 32) scale(2)" fill="#3291E9"/>
<path d="M98.4199 14.9258C98.5328 15.9434 98.9279 16.7349 99.6053 17.3002C100.283 17.8656 101.101 18.1482 102.061 18.1482C102.907 18.1482 103.613 17.9786 104.178 17.6394C104.761 17.2814 105.269 16.8386 105.702 16.3109L108.129 18.1482C107.339 19.1282 106.454 19.8254 105.476 20.24C104.497 20.6546 103.472 20.8618 102.399 20.8618C101.383 20.8618 100.424 20.6922 99.5206 20.353C98.6175 20.0138 97.8366 19.5333 97.178 18.9114C96.5195 18.2896 95.9926 17.5452 95.5975 16.6784C95.2212 15.7927 95.033 14.8128 95.033 13.7386C95.033 12.6645 95.2212 11.694 95.5975 10.8272C95.9926 9.94149 96.5195 9.18771 97.178 8.56585C97.8366 7.94398 98.6175 7.46345 99.5206 7.12425C100.424 6.78505 101.383 6.61545 102.399 6.61545C103.34 6.61545 104.196 6.78505 104.968 7.12425C105.758 7.4446 106.426 7.91571 106.972 8.53758C107.536 9.15945 107.969 9.93207 108.27 10.8554C108.59 11.76 108.75 12.8058 108.75 13.993V14.9258H98.4199ZM105.363 12.3818C105.344 11.3831 105.034 10.601 104.432 10.0357C103.829 9.45154 102.992 9.15945 101.92 9.15945C100.904 9.15945 100.094 9.45154 99.4924 10.0357C98.9091 10.6199 98.5516 11.4019 98.4199 12.3818H105.363Z" transform="translate(135.119 32) scale(2)" fill="#3291E9"/>
<path d="M121.392 18.657H121.308C120.818 19.4297 120.197 19.995 119.445 20.353C118.692 20.6922 117.864 20.8618 116.961 20.8618C116.34 20.8618 115.729 20.777 115.127 20.6074C114.543 20.4378 114.016 20.1834 113.546 19.8442C113.094 19.505 112.727 19.081 112.445 18.5722C112.163 18.0634 112.022 17.4698 112.022 16.7914C112.022 16.0565 112.154 15.4346 112.417 14.9258C112.68 14.3982 113.029 13.9648 113.461 13.6256C113.913 13.2675 114.43 12.9849 115.014 12.7776C115.597 12.5703 116.199 12.4195 116.82 12.3253C117.46 12.2122 118.099 12.1463 118.739 12.1274C119.379 12.0898 119.981 12.0709 120.545 12.0709H121.392V11.7034C121.392 10.8554 121.101 10.2242 120.517 9.80958C119.934 9.37616 119.191 9.15945 118.288 9.15945C117.573 9.15945 116.905 9.29136 116.284 9.55518C115.663 9.80016 115.127 10.1394 114.675 10.5728L112.897 8.79198C113.649 8.01936 114.524 7.46345 115.522 7.12425C116.538 6.78505 117.582 6.61545 118.654 6.61545C119.614 6.61545 120.423 6.72851 121.082 6.95465C121.74 7.16194 122.286 7.43518 122.719 7.77438C123.151 8.11358 123.481 8.50931 123.707 8.96158C123.951 9.395 124.121 9.83785 124.215 10.2901C124.327 10.7424 124.393 11.1852 124.412 11.6186C124.431 12.0332 124.44 12.4007 124.44 12.721V20.5226H121.392V18.657ZM121.195 14.4453H120.489C120.019 14.4453 119.492 14.4642 118.908 14.5018C118.325 14.5395 117.77 14.6338 117.243 14.7845C116.735 14.9164 116.302 15.1237 115.945 15.4064C115.587 15.6702 115.409 16.0471 115.409 16.537C115.409 16.8574 115.475 17.1306 115.606 17.3568C115.757 17.5641 115.945 17.7431 116.171 17.8938C116.397 18.0446 116.651 18.1577 116.933 18.233C117.215 18.2896 117.497 18.3178 117.78 18.3178C118.946 18.3178 119.802 18.0446 120.348 17.4981C120.912 16.9328 121.195 16.1696 121.195 15.2085V14.4453Z" transform="translate(135.119 32) scale(2)" fill="#3291E9"/>
<path fill-rule="evenodd" clip-rule="evenodd" d="M29 0C45.0163 0 58 12.9838 58 29C58 45.0162 45.0163 58 29 58C12.9837 58 0 45.0162 0 29C0 12.9838 12.9837 0 29 0ZM49.7505 29.1716C49.7505 40.7336 40.4044 50.1065 28.8753 50.1065C17.3462 50.1065 8 40.7336 8 29.1716C8 17.6096 17.3462 8.23669 28.8753 8.23669C40.4044 8.23669 49.7505 17.6096 49.7505 29.1716Z" transform="scale(2)" fill="#3291E9"/>
<path fill-rule="evenodd" clip-rule="evenodd" d="M13.654 1.42328C13.654 1.95001 13.376 2.40955 12.9534 2.65607V3.96246L12.9991 3.96863L15.0452 4.23761C15.0505 4.23761 15.0559 4.23761 15.0612 4.23883L15.0563 4.2254C15.061 4.2254 15.0638 4.2254 15.0662 4.22626C15.0694 4.22742 15.0721 4.23016 15.0786 4.23663C15.4344 4.41595 18.9594 7.52032 18.9594 12.1152C18.9594 16.5764 17.5634 17.4541 16.9402 17.8459C16.8621 17.8951 16.7961 17.9366 16.7465 17.9766C16.6798 18.0214 16.5909 18.0214 16.5352 17.9653L16.4929 17.9238L16.4823 17.9134C16.1471 17.5826 15.3513 16.7977 13.6997 16.5645C13.4662 16.5308 13.2326 16.5084 12.9991 16.486L12.9533 16.483L12.9533 19.7252H16.8689C17.8141 19.7252 18.5925 19.0528 18.7815 18.1675C18.7926 18.1002 18.8593 18.0442 18.9372 18.0442C20.84 18.0442 22.7183 17.6143 24.4318 16.7867L24.7751 16.6208C24.8977 16.5591 25.0414 16.5771 25.148 16.653C25.246 16.7227 25.32 16.8369 25.32 16.9571C25.32 17.0916 25.2422 17.2261 25.1087 17.2933C23.5422 18.0514 22.5655 19.6057 21.9911 21.2485C21.7312 21.9922 21.3972 22.7002 20.9985 23.3647C20.7389 23.7972 20.2409 24.0707 19.7823 23.8607L19.0706 23.5469C18.5369 23.3115 17.9586 23.3115 17.4249 23.5469L16.7132 23.8607C16.1794 24.096 15.6012 24.096 15.0674 23.8607L14.3558 23.5469C13.822 23.3115 13.2438 23.3115 12.7101 23.5469L11.9984 23.8607C11.4646 24.096 10.8864 24.096 10.3526 23.8607L9.64096 23.5469C9.10721 23.3115 8.52896 23.3115 7.99521 23.5469L7.28354 23.8607C6.74979 24.096 6.16043 24.096 5.63779 23.8607L4.92612 23.5469C4.39236 23.3115 3.80301 23.3115 3.28036 23.5469L2.6243 23.8383C2.31311 23.9755 1.96118 23.82 1.77692 23.5342C0.638306 21.7676 0 19.6846 0 17.4502C0 17.2933 0 17.1364 0.0111084 16.9795C0.0111084 16.8898 0.0889587 16.8226 0.166809 16.8226H6.19379C6.28275 16.8226 6.34946 16.8898 6.34946 16.9795V17.7528C6.34946 18.8399 7.22794 19.7252 8.30655 19.7252H11.5411V16.4657C10.8056 16.5009 10.2006 16.588 9.84109 16.6429C9.77829 16.6534 9.72537 16.6243 9.69153 16.5834L9.68542 16.5878C9.65207 16.543 9.64093 16.487 9.67429 16.431C9.9523 15.837 10.4972 14.2119 10.3971 10.7041C10.2859 6.90491 8.96262 4.43933 8.45111 3.63245C8.37326 3.52032 8.47336 3.37463 8.60678 3.38586L11.5411 3.77209V2.64948C11.1248 2.40143 10.8517 1.94531 10.8517 1.42328C10.8517 0.638794 11.4856 0 12.264 0C13.0424 0 13.654 0.638794 13.654 1.42328ZM8.6958 15.3866V9.22272C8.6958 9.16669 8.66245 9.09943 8.60684 9.07703L5.81573 7.76581C5.73788 7.73218 5.63782 7.76581 5.60446 7.85541L2.71329 15.3194C2.66882 15.4315 2.74664 15.5435 2.85785 15.5435H8.5401C8.62906 15.5435 8.6958 15.4763 8.6958 15.3866Z" transform="translate(34 32.2) scale(2)" fill="#3291E9"/>
</svg>
