<svg xmlns="http://www.w3.org/2000/svg" viewBox="0 0 2440 2440"><g id="Layer_2" data-name="Layer 2"><g id="Layer_1-2" data-name="Layer 1"><rect x="20" y="20" width="2400" height="2400" style="fill:#231f20;stroke:#231f20;stroke-miterlimit:10"/><path d="M196.11,368.23h34.8v240.4h115.2v29.2h-150Z" style="fill:#fff;stroke:#231f20;stroke-miterlimit:10"/><path d="M543.87,368.23v269.6h-34.8V368.23Z" style="fill:#fff;stroke:#231f20;stroke-miterlimit:10"/><path d="M956,519.43c-2-37.6-4.4-82.8-4-116.4h-1.2c-9.2,31.6-20.4,65.2-34,102.4l-47.6,130.8h-26.4l-43.6-128.4c-12.8-38-23.6-72.8-31.2-104.8h-.8c-.8,33.6-2.8,78.8-5.2,119.2l-7.2,115.6h-33.2l18.8-269.6h44.4l46,130.4c11.2,33.2,20.4,62.8,27.2,90.8h1.2c6.8-27.2,16.4-56.8,28.4-90.8l48-130.4H980l16.8,269.6h-34Z" style="fill:#fff;stroke:#231f20;stroke-miterlimit:10"/><path d="M1209.4,368.23v269.6h-34.8V368.23Z" style="fill:#fff;stroke:#231f20;stroke-miterlimit:10"/><path d="M1445.56,397.83h-82v-29.6h199.59v29.6h-82.4v240h-35.2Z" style="fill:#fff;stroke:#231f20;stroke-miterlimit:10"/><path d="M1856.93,511.43h-104.8v97.2h116.8v29.2h-151.6V368.23h145.6v29.2h-110.8v85.2h104.8Z" style="fill:#fff;stroke:#231f20;stroke-miterlimit:10"/><path d="M2038.29,371.83a498.46,498.46,0,0,1,74-5.6c50,0,85.6,11.6,109.2,33.6,24,22,38,53.2,38,96.8,0,44-13.6,80-38.8,104.8-25.2,25.2-66.8,38.8-119.2,38.8a561.7,561.7,0,0,1-63.2-3.2Zm34.8,238.4c8.8,1.6,21.6,2,35.2,2,74.4,0,114.8-41.6,114.8-114.4.4-63.6-35.6-104-109.2-104-18,0-31.6,1.6-40.8,3.6Z" style="fill:#fff;stroke:#231f20;stroke-miterlimit:10"/><path d="M335.71,991.43H230.91v97.2h116.8v29.2H196.11V848.23h145.6v29.2H230.91v85.2h104.8Z" style="fill:#fff;stroke:#231f20;stroke-miterlimit:10"/><path d="M512.34,851.83a498.46,498.46,0,0,1,74-5.6c50,0,85.6,11.6,109.2,33.6,24,22,38,53.2,38,96.8,0,44-13.6,80-38.8,104.8-25.2,25.2-66.8,38.8-119.2,38.8a561.7,561.7,0,0,1-63.2-3.2Zm34.8,238.4c8.8,1.6,21.6,2,35.2,2,74.4,0,114.8-41.6,114.8-114.4.4-63.6-35.6-104-109.2-104-18,0-31.6,1.6-40.8,3.6Z" style="fill:#fff;stroke:#231f20;stroke-miterlimit:10"/><path d="M933,848.23v269.6h-34.8V848.23Z" style="fill:#fff;stroke:#231f20;stroke-miterlimit:10"/><path d="M1164.4,877.83h-82v-29.6H1282v29.6h-82.4v240h-35.2Z" style="fill:#fff;stroke:#231f20;stroke-miterlimit:10"/><path d="M1466.23,848.23v269.6h-34.8V848.23Z" style="fill:#fff;stroke:#231f20;stroke-miterlimit:10"/><path d="M1876.86,980.23c0,92.8-56.4,142-125.2,142-71.2,0-121.2-55.2-121.2-136.8,0-85.6,53.2-141.6,125.2-141.6C1829.26,843.83,1876.86,900.23,1876.86,980.23Zm-209.2,4.4c0,57.6,31.2,109.2,86,109.2,55.2,0,86.4-50.8,86.4-112,0-53.6-28-109.6-86-109.6C1696.46,872.23,1667.66,925.43,1667.66,984.63Z" style="fill:#fff;stroke:#231f20;stroke-miterlimit:10"/><path d="M2041.49,1117.83V848.23h38l86.4,136.4c20,31.6,35.6,60,48.4,87.6l.8-.4c-3.2-36-4-68.8-4-110.8V848.23h32.8v269.6h-35.2L2123.09,981c-18.8-30-36.8-60.8-50.4-90l-1.2.4c2,34,2.8,66.4,2.8,111.2v115.2Z" style="fill:#fff;stroke:#231f20;stroke-miterlimit:10"/><path d="M247.31,1357.83h-82v-29.6h199.6v29.6h-82.4v240h-35.2Z" style="fill:#fff;stroke:#231f20;stroke-miterlimit:10"/><path d="M534.74,1328.23v269.6h-34.8v-269.6Z" style="fill:#fff;stroke:#231f20;stroke-miterlimit:10"/><path d="M700.57,1597.83v-269.6h38l86.4,136.4c20,31.6,35.6,60,48.4,87.6l.8-.4c-3.2-36-4-68.8-4-110.8v-112.8H903v269.6h-35.2L782.17,1461c-18.8-30-36.8-60.8-50.4-90l-1.2.4c2,34,2.8,66.4,2.8,111.2v115.2Z" style="fill:#fff;stroke:#231f20;stroke-miterlimit:10"/><path d="M1126,1597.83v-114.4l-85.2-155.2h39.6l38,74.4c10.4,20.4,18.4,36.8,26.8,55.6h.8c7.6-17.6,16.8-35.2,27.2-55.6l38.8-74.4h39.6L1161.2,1483v114.8Z" style="fill:#fff;stroke:#231f20;stroke-miterlimit:10"/><path d="M1384.63,1331.83c15.2-3.2,39.2-5.6,63.6-5.6,34.8,0,57.2,6,74,19.6,14,10.4,22.4,26.4,22.4,47.6,0,26-17.2,48.8-45.6,59.2v.8c25.6,6.4,55.6,27.6,55.6,67.6,0,23.2-9.2,40.8-22.8,54-18.8,17.2-49.2,25.2-93.2,25.2a406.83,406.83,0,0,1-54-3.2Zm34.8,110.4H1451c36.8,0,58.4-19.2,58.4-45.2,0-31.6-24-44-59.2-44-16,0-25.2,1.2-30.8,2.4Zm0,129.2c6.8,1.2,16.8,1.6,29.2,1.6,36,0,69.2-13.2,69.2-52.4,0-36.8-31.6-52-69.6-52h-28.8Z" style="fill:#fff;stroke:#231f20;stroke-miterlimit:10"/><path d="M1936.85,1460.23c0,92.8-56.4,142-125.2,142-71.19,0-121.19-55.2-121.19-136.8,0-85.6,53.19-141.6,125.19-141.6C1889.25,1323.83,1936.85,1380.23,1936.85,1460.23Zm-209.19,4.4c0,57.6,31.19,109.2,86,109.2,55.2,0,86.4-50.8,86.4-112,0-53.6-28-109.6-86-109.6C1756.45,1352.23,1727.66,1405.43,1727.66,1464.63Z" style="fill:#fff;stroke:#231f20;stroke-miterlimit:10"/><path d="M2223.88,1597.83l-34.4-59.6c-14-22.8-22.8-37.6-31.19-53.2h-.8c-7.61,15.6-15.2,30-29.2,53.6l-32.4,59.2h-40l82.4-136.4-79.2-133.2h40.4l35.59,63.2c10,17.6,17.61,31.2,24.8,45.6h1.2c7.6-16,14.4-28.4,24.4-45.6l36.8-63.2h40l-82,131.2,84,138.4Z" style="fill:#fff;stroke:#231f20;stroke-miterlimit:10"/><path d="M247.31,1837.83h-82v-29.6h199.6v29.6h-82.4v240h-35.2Z" style="fill:#fff;stroke:#231f20;stroke-miterlimit:10"/><path d="M856.56,1940.23c0,92.8-56.4,142-125.2,142-71.2,0-121.2-55.2-121.2-136.8,0-85.6,53.2-141.6,125.2-141.6C809,1803.83,856.56,1860.23,856.56,1940.23Zm-209.2,4.4c0,57.6,31.2,109.2,86,109.2,55.2,0,86.4-50.8,86.4-112,0-53.6-28-109.6-86-109.6C676.16,1832.23,647.36,1885.43,647.36,1944.63Z" style="fill:#fff;stroke:#231f20;stroke-miterlimit:10"/><path d="M1143.8,1808.23h34.8v130h1.2c7.2-10.4,14.4-20,21.2-28.8l82.4-101.2h43.2l-97.6,114.4,105.2,155.2H1293l-88.8-132.4-25.6,29.6v102.8h-34.8Z" style="fill:#fff;stroke:#231f20;stroke-miterlimit:10"/><path d="M1742.25,1951.43h-104.8v97.2h116.8v29.2h-151.6v-269.6h145.6v29.2h-110.8v85.2h104.8Z" style="fill:#fff;stroke:#231f20;stroke-miterlimit:10"/><path d="M2041.49,2077.83v-269.6h38l86.4,136.4c20,31.6,35.6,60,48.4,87.6l.8-.4c-3.2-36-4-68.8-4-110.8v-112.8h32.8v269.6h-35.2l-85.6-136.8c-18.8-30-36.8-60.8-50.4-90l-1.2.4c2,34,2.8,66.4,2.8,111.2v115.2Z" style="fill:#fff;stroke:#231f20;stroke-miterlimit:10"/><rect x="20" y="20" width="2400" height="2400" style="fill:none;stroke:#fff;stroke-miterlimit:10;stroke-width:40px"/><rect x="65.86" y="72.71" width="2301.43" height="2301.43" style="fill:none;stroke:#fff;stroke-miterlimit:10;stroke-width:12px"/><rect x="1324.78" y="127.71" width="110" height="110" style="fill:#414042"/><rect x="1504.19" y="147.34" width="70.76" height="70.76" transform="translate(321.73 1142.15) rotate(-45)" style="fill:#414042"/><rect x="1184.62" y="147.34" width="70.76" height="70.76" transform="translate(2211.87 -550.76) rotate(135)" style="fill:#414042"/><rect x="685.65" y="127.71" width="110" height="110" style="fill:#414042"/><rect x="865.06" y="147.34" width="70.76" height="70.76" transform="translate(134.53 690.22) rotate(-45)" style="fill:#414042"/><rect x="545.49" y="147.34" width="70.76" height="70.76" transform="translate(1120.8 -98.82) rotate(135)" style="fill:#414042"/><rect x="1005.22" y="127.71" width="110" height="110" style="fill:#414042"/><rect x="1963.91" y="127.71" width="110" height="110" style="fill:#414042"/><rect x="2143.32" y="147.34" width="70.76" height="70.76" transform="translate(508.93 1594.09) rotate(-45)" style="fill:#414042"/><rect x="1823.75" y="147.34" width="70.76" height="70.76" transform="translate(3302.93 -1002.69) rotate(135)" style="fill:#414042"/><rect x="1644.35" y="127.71" width="110" height="110" style="fill:#414042"/><rect x="366.09" y="127.71" width="110" height="110" style="fill:#414042"/><rect x="225.92" y="147.34" width="70.76" height="70.76" transform="translate(575.27 127.14) rotate(135)" style="fill:#414042"/><rect x="1321.35" y="2203.23" width="110" height="110" style="fill:#414042"/><rect x="1500.76" y="2222.85" width="70.76" height="70.76" transform="translate(-1146.89 1747.63) rotate(-45)" style="fill:#414042"/><rect x="1181.19" y="2222.85" width="70.76" height="70.76" transform="translate(3673.63 2994.79) rotate(135)" style="fill:#414042"/><rect x="682.22" y="2203.23" width="110" height="110" style="fill:#414042"/><rect x="861.63" y="2222.85" width="70.76" height="70.76" transform="translate(-1334.08 1295.7) rotate(-45)" style="fill:#414042"/><rect x="542.06" y="2222.85" width="70.76" height="70.76" transform="translate(2582.56 3446.73) rotate(135)" style="fill:#414042"/><rect x="1001.79" y="2203.23" width="110" height="110" style="fill:#414042"/><rect x="1960.48" y="2203.23" width="110" height="110" style="fill:#414042"/><rect x="2139.89" y="2222.85" width="70.76" height="70.76" transform="translate(-959.69 2199.57) rotate(-45)" style="fill:#414042"/><rect x="1820.32" y="2222.85" width="70.76" height="70.76" transform="translate(4764.69 2542.86) rotate(135)" style="fill:#414042"/><rect x="1640.92" y="2203.23" width="110" height="110" style="fill:#414042"/><rect x="362.66" y="2203.23" width="110" height="110" style="fill:#414042"/><rect x="222.5" y="2222.85" width="70.76" height="70.76" transform="translate(2037.03 3672.69) rotate(135)" style="fill:#414042"/></g></g></svg>