<svg xmlns="http://www.w3.org/2000/svg" viewBox="0 0 453 386"><g id="Layer_2" data-name="Layer 2"><g id="Layer_1-2" data-name="Layer 1"><path d="M62.24,45.25,55.35,51.7A14.93,14.93,0,0,0,50,46.11a13.17,13.17,0,0,0-16.46,2.44,14,14,0,0,0-4.16,10.11,14.55,14.55,0,0,0,4.16,10.49,13.41,13.41,0,0,0,10,4.3,12.69,12.69,0,0,0,6.14-1.61c2-1.07,3.54-3.09,4.74-6H43.05V56.42H65.24v6.23A20.37,20.37,0,0,1,62,73,19.93,19.93,0,0,1,53.27,81a25.21,25.21,0,0,1-10.88,2.55,22.29,22.29,0,0,1-16.81-7.22,24.93,24.93,0,0,1-6.85-17.83A23.61,23.61,0,0,1,25.78,41.3a23,23,0,0,1,17-7.14Q55.42,34.16,62.24,45.25Z" style="fill:#231f20"/><path d="M74.73,34.82h27.06v9.52H85.09V54h16.7v9.38H85.09v10h16.7V82.9H74.73Z" style="fill:#231f20"/><path d="M144.06,34.82H154.2V82.9H144.11l-22-31.13V82.9H111.76V34.82H122l22,30.9Z" style="fill:#231f20"/><path d="M165.63,34.82h27.06v9.52H176V54h16.7v9.38H176v10h16.7V82.9H165.63Z" style="fill:#231f20"/><path d="M203.06,34.82H218.9q7.22,0,11.42,3.8a13.2,13.2,0,0,1,4.2,10.29,17.61,17.61,0,0,1-1.93,7.69q-1.92,4-7.1,6.25L239,82.9H227L214.6,64.3h-1.18V82.9H203.06Zm10.44,8.57V55.91h2.24q8.12,0,8.12-6.63a5.09,5.09,0,0,0-2.11-4.3,9.56,9.56,0,0,0-5.86-1.59Z" style="fill:#231f20"/><path d="M265.28,34.82h8L292.89,82.9H282.47l-3.85-9.45H260.16l-3.77,9.45H246Zm4,15.74-5.65,14.18h11.43Z" style="fill:#231f20"/><path d="M294.07,34.82h32.34V45h-11V82.9H305V45H294.07Z" style="fill:#231f20"/><path d="M334.47,34.82h10.36V82.9H334.47Z" style="fill:#231f20"/><path d="M352.2,34.82h10.49l12.16,32,12.18-32h10.5L379.33,82.9h-9Z" style="fill:#231f20"/><path d="M405.52,34.82h27.06v9.52h-16.7V54h16.7v9.38h-16.7v10h16.7V82.9H405.52Z" style="fill:#231f20"/><path d="M20.86,124.82H31.22V172.9H20.86Z" style="fill:#231f20"/><path d="M72.92,124.82H83.07V172.9H73L51,141.77V172.9H40.62V124.82H50.87l22.05,30.9Z" style="fill:#231f20"/><path d="M89.72,124.82h32.34V135H111V172.9H100.67V135h-11Z" style="fill:#231f20"/><path d="M129.29,124.82h27.07v9.52h-16.7V144h16.7v9.38h-16.7v10h16.7v9.52H129.29Z" style="fill:#231f20"/><path d="M165.32,124.82h15.84q7.22,0,11.42,3.8a13.2,13.2,0,0,1,4.2,10.29,17.75,17.75,0,0,1-1.93,7.69q-1.92,4-7.1,6.25l13.46,20.05H189.3l-12.45-18.6h-1.17v18.6H165.32Zm10.43,8.57v12.52H178q8.12,0,8.12-6.63A5.12,5.12,0,0,0,184,135a9.59,9.59,0,0,0-5.87-1.59Z" style="fill:#231f20"/><path d="M226.13,124.82h8l19.59,48.08H243.32l-3.85-9.45H221l-3.76,9.45H206.87Zm4,15.74-5.65,14.18h11.43Z" style="fill:#231f20"/><path d="M293.5,127.38V139.1q-7.8-4.69-13.65-4.69a11.81,11.81,0,0,0-9.38,4q-3.51,4-3.51,10.84,0,6.45,3.69,10.31a13.09,13.09,0,0,0,9.89,3.86c3.61,0,7.94-1.45,13-4.36v11.65q-8.44,2.82-14.09,2.82a21.91,21.91,0,0,1-16.48-7.12,24.27,24.27,0,0,1-6.78-17.38,24.64,24.64,0,0,1,6.9-17.67,22.36,22.36,0,0,1,16.8-7.23A33.83,33.83,0,0,1,293.5,127.38Z" style="fill:#231f20"/><path d="M298.29,124.82h32.34V135h-11V172.9H309.24V135H298.29Z" style="fill:#231f20"/><path d="M337.28,124.82h10.36V172.9H337.28Z" style="fill:#231f20"/><path d="M353.6,124.82h10.49l12.16,32,12.18-32h10.51L380.73,172.9h-9Z" style="fill:#231f20"/><path d="M405.52,124.82h27.06v9.52h-16.7V144h16.7v9.38h-16.7v10h16.7v9.52H405.52Z" style="fill:#231f20"/><path d="M38.06,214.82h8L65.68,262.9H55.25l-3.85-9.45H33l-3.77,9.45H18.81Zm4,15.74-5.65,14.18H47.85Z" style="fill:#231f20"/><path d="M115,214.82H125.1V262.9H115L93,231.77V262.9H82.65V214.82H92.9l22,30.9Z" style="fill:#231f20"/><path d="M144.45,214.82h10.36V262.9H144.45Z" style="fill:#231f20"/><path d="M178.09,214.82H190.4l9,28.82,9-28.82H220.3l6.19,48.08h-9.87l-4.24-33.84L201.79,262.9h-4.7l-10.86-34.13-4,34.13h-10Z" style="fill:#231f20"/><path d="M260.93,214.82h8l19.58,48.08H278.11l-3.84-9.45H255.81L252,262.9H241.67Zm4,15.74-5.65,14.18h11.42Z" style="fill:#231f20"/><path d="M298.23,214.82h32.33V225h-11V262.9H309.18V225H298.23Z" style="fill:#231f20"/><path d="M347.72,214.82h27.06v9.52h-16.7V234h16.7v9.38h-16.7v10h16.7v9.52H347.72Z" style="fill:#231f20"/><path d="M393.54,214.82H410q10.51,0,16.92,6.62t6.41,17.47q0,10.88-6.61,17.43t-17.6,6.56H393.54ZM404,223.9v29.7h4.1a15.65,15.65,0,0,0,10.48-3.48q4.1-3.48,4.1-11.61a17.26,17.26,0,0,0-2-8.37A10.1,10.1,0,0,0,415,225.2a21.78,21.78,0,0,0-7.16-1.3Z" style="fill:#231f20"/><path d="M19.8,328.84q0-10.66,7.05-17.6a23,23,0,0,1,16.71-6.94q10.69,0,17.69,7a25.73,25.73,0,0,1,.07,35.21,23.51,23.51,0,0,1-17.43,7q-10.5,0-17.3-7T19.8,328.84ZM44,313.9a11.92,11.92,0,0,0-9.74,4.17,16.32,16.32,0,0,0-3.7,11.06,15.32,15.32,0,0,0,3.77,10.62A12.23,12.23,0,0,0,43.89,344a12.47,12.47,0,0,0,9.76-4.15q3.72-4.15,3.72-11t-3.64-10.77A12.7,12.7,0,0,0,44,313.9Z" style="fill:#231f20"/><path d="M119.45,304.82h10.14V352.9H119.5l-22-31.13V352.9H87.15V304.82H97.39l22.06,30.9Z" style="fill:#231f20"/><path d="M146.22,332.43h21.13v9.45H146.22Z" style="fill:#231f20"/><path d="M220.2,307.38V319.1q-7.8-4.69-13.66-4.69a11.82,11.82,0,0,0-9.38,4q-3.51,4-3.51,10.84,0,6.45,3.7,10.31a13.06,13.06,0,0,0,9.89,3.86q5.41,0,13-4.36v11.65q-8.46,2.82-14.1,2.82a21.92,21.92,0,0,1-16.48-7.12,24.26,24.26,0,0,1-6.77-17.38,24.64,24.64,0,0,1,6.9-17.67,22.34,22.34,0,0,1,16.79-7.23A33.88,33.88,0,0,1,220.2,307.38Z" style="fill:#231f20"/><path d="M238.66,304.82H249v18.53h17V304.82h10.37V352.9H266.05V333.78H249V352.9H238.66Z" style="fill:#231f20"/><path d="M313.84,304.82h8l19.59,48.08H331l-3.85-9.45H308.73L305,352.9H294.58Zm4,15.74-5.66,14.18h11.43Z" style="fill:#231f20"/><path d="M359,304.82h10.36V352.9H359Z" style="fill:#231f20"/><path d="M421.56,304.82H431.7V352.9H421.61l-22-31.13V352.9H389.26V304.82h10.25l22.05,30.9Z" style="fill:#231f20"/><rect x="5" y="5" width="443" height="376" style="fill:none;stroke:#231f20;stroke-miterlimit:10;stroke-width:10px"/></g></g></svg>