<svg xmlns="http://www.w3.org/2000/svg" xmlns:xlink="http://www.w3.org/1999/xlink" viewBox="0 0 582.34 800.54">
  <defs>
    <style>
      .cls-1,
      .cls-5 {
        fill: none;
      }

      .cls-2 {
        fill: #949494;
      }

      .cls-3 {
        fill: url(#New_Pattern);
      }

      .cls-4 {
        fill: #f2f2f2;
      }

      .cls-5 {
        stroke: #000;
        stroke-linecap: round;
        stroke-linejoin: round;
        stroke-width: 2.5px;
      }
    </style>
    <pattern id="New_Pattern" data-name="New Pattern" width="12" height="12" patternTransform="translate(-5.25 1225.56) rotate(-180)" patternUnits="userSpaceOnUse" viewBox="0 0 12 12">
      <rect class="cls-1" width="12" height="12" />
      <rect class="cls-1" width="12" height="12" />
      <rect class="cls-1" width="12" height="12" />
      <circle class="cls-2" cx="12" cy="9" r="2" />
      <circle class="cls-2" cx="6" cy="12" r="2" />
      <circle class="cls-2" cy="9" r="2" />
      <circle class="cls-2" cx="12" cy="3" r="2" />
      <circle class="cls-2" cx="6" cy="6" r="2" />
      <circle class="cls-2" cy="3" r="2" />
      <circle class="cls-2" cx="6" r="2" />
    </pattern>
    <g id="logo" transform="scale(0.7) translate(294 148)">
      <g id="Squares" data-name="Squares" transform="translate(0 5)">
        <rect x="45" y="26" width="130" height="130" transform-origin="110 91" style="fill:#fff;stroke:#231f20;stroke-miterlimit:10;stroke-width:3px">
          <animateTransform attributeName="transform" attributeType="XML" type="rotate" dur="5s" values="0;15;15;360;360" keyTimes="0;0.025;0.7;0.85;1" keySplines="0 0 0.1 1;.5 0 .5 1;.5 0 .5 1;.5 0 .5 1" calcMode="spline" repeatCount="indefinite" />
        </rect>
        <rect x="45" y="26" width="130" height="130" transform-origin="110 91" style="fill:#f2f2f2;stroke:#231f20;stroke-miterlimit:10;stroke-width:3px">
          <animateTransform attributeName="transform" attributeType="XML" type="rotate" dur="5s" values="0;30;30;360;360" keyTimes="0;0.05;0.7;0.85;1" keySplines="0 0 0.1 1;.5 0 .5 1;.5 0 .5 1;.5 0 .5 1" calcMode="spline" repeatCount="indefinite" />
        </rect>
        <rect x="45" y="26" width="130" height="130" transform-origin="110 91" style="fill:#e6e6e6;stroke:#231f20;stroke-miterlimit:10;stroke-width:3px">
          <animateTransform attributeName="transform" attributeType="XML" type="rotate" dur="5s" values="0;45;45;360;360" keyTimes="0;0.1;0.7;0.85;1" keySplines="0 0 0.1 1;.5 0 .5 1;.5 0 .5 1;.5 0 .5 1" calcMode="spline" repeatCount="indefinite" />
        </rect>
        <rect x="45" y="26" width="130" height="130" transform-origin="110 91" style="fill:#dddddd;stroke:#231f20;stroke-miterlimit:10;stroke-width:3px">
          <animateTransform attributeName="transform" attributeType="XML" type="rotate" dur="5s" values="0;60;60;360;360" keyTimes="0;0.15;0.7;0.85;1" keySplines="0 0 0.1 1;.5 0 .5 1;.5 0 .5 1;.5 0 .5 1" calcMode="spline" repeatCount="indefinite" />
        </rect>
        <rect x="45" y="26" width="130" height="130" transform-origin="110 91" style="fill:#d1d1d1;stroke:#231f20;stroke-miterlimit:10;stroke-width:3px">
          <animateTransform attributeName="transform" attributeType="XML" type="rotate" dur="5s" values="0;75;75;360;360" keyTimes="0;0.2;0.7;0.85;1" keySplines="0 0 0.1 1;.5 0 .5 1;.5 0 .5 1;.5 0 .5 1" calcMode="spline" repeatCount="indefinite" />
        </rect>
        <rect x="45" y="26" width="130" height="130" transform-origin="110 91" style="fill:#bebebe;stroke:#231f20;stroke-miterlimit:10;stroke-width:3px">
          <animateTransform attributeName="transform" attributeType="XML" type="rotate" dur="5s" values="0;90;90;360;360" keyTimes="0;0.25;0.7;0.85;1" keySplines="0 0 0.1 1;.5 0 .5 1;.5 0 .5 1;.5 0 .5 1" calcMode="spline" repeatCount="indefinite" />
        </rect>
      </g>
      <g id="TINY" transform-origin="110 97.5">
        <animate attributeName="opacity" dur="5s" values="0;1;1;0;0" keyTimes="0;0.175;0.9;0.95;1" repeatCount="indefinite" />
        <animateTransform attributeName="transform" attributeType="XML" type="scale" dur="5s" values="0 0;1 1;1 1;0 0;0 0" keyTimes="0;0.3;0.69;0.85;1" keySplines="0 .5 .5 1;.5 0 .5 1;.5 .5 0 1;.5 0 .5 1" calcMode="spline" repeatCount="indefinite" />
        <path d="M84.31,42.83V88.57h-12V42.83H55.19V34.32H101.4v8.51Z" style="fill:#231f20" transform-origin="50% 50%" transform="translate(0 4)" />
        <path d="M122.1,42.67V34.32h39.43v8.35H147.78V80.14h13.75v8.43H122.1V80.14h13.75V42.67Z" style="fill:#231f20" transform="translate(0 4)" />
        <path d="M86.74,150.57,70,118.2l-3.44-7v39.35H55.91V96.32H70.32l17,32.58,3,6.35V96.32h10.69v54.25Z" style="fill:#231f20" transform="translate(0 4)" />
        <path d="M147.64,131.35v19.22H135.71V131.44L115.42,96.32h13l9.16,16.77,4.2,8.22,4.2-8.47,9.6-16.52h12.5Z" style="fill:#231f20" transform="translate(0 4)" />
      </g>
      <g id="BOXES" transform="translate(0 20)">
        <g id="B">
          <animateTransform attributeName="transform" attributeType="XML" type="translate" dur="3s" values="0 0;0.3 0.5;-0.2 0.2;-0.5 -0.3;-0.2 0.4;0.5 0.2;0 0.5;-0.4 0;0.2 -0.5;-0.3 0.3;0 0" keyTimes="0;0.1;0.2;0.3;0.4;0.5;0.6;0.7;0.8;0.9;1" repeatCount="indefinite" />
          <rect y="171.22" width="39.9" height="39.9" style="fill:#231f20" />
          <path d="M11.47,200.7V175.17h8.25q4.35,0,6.53,1.52a5.27,5.27,0,0,1,2.18,4.61,7.79,7.79,0,0,1-.23,1.87,6,6,0,0,1-.69,1.67,5.21,5.21,0,0,1-2.83,2.26,6,6,0,0,1,1.82.62A5.53,5.53,0,0,1,28,188.91a5.64,5.64,0,0,1,1,1.73,6.07,6.07,0,0,1,.38,2.23,6.89,6.89,0,0,1-2.61,5.87c-1.75,1.3-4.27,2-7.56,2Zm12-18.56a3.47,3.47,0,0,0-.24-1.31,2.26,2.26,0,0,0-.75-1,3.75,3.75,0,0,0-1.33-.64,7.41,7.41,0,0,0-2-.22H16.24v6.76h2.91a6,6,0,0,0,2-.29,3.55,3.55,0,0,0,1.33-.78,2.92,2.92,0,0,0,.74-1.14A4.18,4.18,0,0,0,23.43,182.14ZM19.6,196.77a6.47,6.47,0,0,0,2-.29,4.46,4.46,0,0,0,1.46-.81,3.4,3.4,0,0,0,.88-1.22,3.64,3.64,0,0,0,.31-1.51A3.08,3.08,0,0,0,23,190.35a6.27,6.27,0,0,0-3.8-.94h-3v7.36Z" transform="translate(0 2.12)" style="fill:#fff" />
        </g>
        <g id="O">
          <animateTransform attributeName="transform" attributeType="XML" type="translate" dur="3s" values="0 0;-0.4 0;-0.2 0.4;-0.3 0.3;0.3 0.5;0.5 0.2;0 0.5;0.2 -0.5;-0.2 0.2;-0.5 -0.3;0 0" keyTimes="0;0.1;0.2;0.3;0.4;0.5;0.6;0.7;0.8;0.9;1" repeatCount="indefinite" />
          <rect x="45.48" y="163.51" width="39.9" height="39.9" style="fill:#414042" />
          <path d="M75.71,180.12a19.71,19.71,0,0,1-.81,6,11.51,11.51,0,0,1-2.23,4.14,8.76,8.76,0,0,1-3.32,2.4,10.65,10.65,0,0,1-4.07.78q-5,0-7.58-3.35t-2.54-9.74a19.68,19.68,0,0,1,.81-6,11.51,11.51,0,0,1,2.23-4.14,8.76,8.76,0,0,1,3.32-2.4,10.47,10.47,0,0,1,4.07-.79c3.36,0,5.89,1.12,7.58,3.34S75.71,175.85,75.71,180.12Zm-5.08.23q0-4.53-1.21-6.75a4.18,4.18,0,0,0-4-2.23,4.53,4.53,0,0,0-2.37.58,4.38,4.38,0,0,0-1.61,1.69,8.72,8.72,0,0,0-.93,2.74,21.86,21.86,0,0,0-.29,3.74,14.6,14.6,0,0,0,1.22,6.76,4.19,4.19,0,0,0,4,2.22,4.67,4.67,0,0,0,2.37-.57,4.45,4.45,0,0,0,1.61-1.69,8.79,8.79,0,0,0,.92-2.75A21.78,21.78,0,0,0,70.63,180.35Z" transform="translate(0 2.12)" style="fill:#fff" />
        </g>
        <g id="X">
          <animateTransform attributeName="transform" attributeType="XML" type="translate" dur="3s" values="0 0;0.3 0.5;0.5 0.2;0 0.5;-0.4 0;0.2 -0.5;-0.2 0.2;-0.5 -0.3;-0.2 0.4;-0.3 0.3;0 0" keyTimes="0;0.1;0.2;0.3;0.4;0.5;0.6;0.7;0.8;0.9;1" repeatCount="indefinite" />
          <rect x="90.5" y="168.16" width="39.9" height="39.9" style="fill:#231f20" />
          <path d="M115.17,197.64l-4.92-9.4-4.84,9.4h-5.8L107,184.55l-6.87-12.44h5.64l4.63,8.89,4.47-8.89h5.65l-6.84,12.44,7.64,13.09Z" transform="translate(0 2.12)" style="fill:#fff" />
        </g>
        <g id="E">
          <animateTransform attributeName="transform" attributeType="XML" type="translate" dur="3s" values="0 0;-0.2 0.2;0.3 0.5;-0.5 -0.3;-0.2 0.4;0 0.5;-0.4 0;0.5 0.2;0.2 -0.5;-0.3 0.3;0 0" keyTimes="0;0.1;0.2;0.3;0.4;0.5;0.6;0.7;0.8;0.9;1" repeatCount="indefinite" />
          <rect x="135.08" y="161.52" width="39.9" height="39.9" style="fill:#414042" />
          <path d="M147.63,191V165.47H163v4.06H152.51v6.35h10v4h-10v7.09H163V191Z" transform="translate(0 2.12)" style="fill:#fff" />
        </g>
        <g id="S">
          <animateTransform attributeName="transform" attributeType="XML" type="translate" dur="3s" values="0 0;0.2 -0.5;-0.3 0.3;0.3 0.5;-0.2 0.2;-0.5 -0.3;-0.2 0.4;0.5 0.2;0 0.5;-0.4 0;0 0" keyTimes="0;0.1;0.2;0.3;0.4;0.5;0.6;0.7;0.8;0.9;1" repeatCount="indefinite" />
          <rect x="180.1" y="169.88" width="39.9" height="39.9" style="fill:#231f20" />
          <path d="M209,191.65a8,8,0,0,1-.78,3.63,6.9,6.9,0,0,1-2.15,2.55,9.6,9.6,0,0,1-3.3,1.49,16.7,16.7,0,0,1-4.18.49,32.54,32.54,0,0,1-3.89-.23,23.77,23.77,0,0,1-3.71-.78v-4.75c.6.21,1.22.4,1.87.59s1.31.34,2,.47,1.31.25,2,.33a17.69,17.69,0,0,0,1.89.11,9.81,9.81,0,0,0,2.33-.23,4.7,4.7,0,0,0,1.56-.65,2.46,2.46,0,0,0,.88-1,2.89,2.89,0,0,0,.27-1.25,2.37,2.37,0,0,0-.53-1.57,5,5,0,0,0-1.42-1.13,13.33,13.33,0,0,0-2-.88c-.75-.26-1.51-.54-2.29-.84s-1.53-.63-2.28-1a8.44,8.44,0,0,1-2-1.41,6.69,6.69,0,0,1-1.41-2,6.6,6.6,0,0,1-.54-2.8,7.35,7.35,0,0,1,.55-2.85,6.07,6.07,0,0,1,1.72-2.36,8.67,8.67,0,0,1,3-1.6,14.36,14.36,0,0,1,4.43-.59q.76,0,1.59.06c.55.05,1.1.11,1.64.18s1.06.16,1.56.25,1,.2,1.38.31v4.39a13.06,13.06,0,0,0-1.37-.43c-.49-.13-1-.24-1.53-.34s-1.06-.17-1.59-.23-1-.07-1.52-.07a9.41,9.41,0,0,0-2.15.2,4.77,4.77,0,0,0-1.45.57,2.11,2.11,0,0,0-.82.89,2.64,2.64,0,0,0-.25,1.17,2,2,0,0,0,.53,1.38,5.43,5.43,0,0,0,1.43,1,16,16,0,0,0,2,.86c.75.27,1.52.55,2.31.86a22.52,22.52,0,0,1,2.3,1,8.81,8.81,0,0,1,2,1.43,6.44,6.44,0,0,1,1.43,2A6.3,6.3,0,0,1,209,191.65Z" transform="translate(0 2.12)" style="fill:#fff" />
        </g>
      </g>
    </g>
    <g id="GenIntAnim" data-name="Layer 2" transform="translate(192 106) scale(0.4)">
      <path d="M62.24,45.25,55.35,51.7A14.93,14.93,0,0,0,50,46.11a13.17,13.17,0,0,0-16.46,2.44,14,14,0,0,0-4.16,10.11,14.55,14.55,0,0,0,4.16,10.49,13.41,13.41,0,0,0,10,4.3,12.69,12.69,0,0,0,6.14-1.61c2-1.07,3.54-3.09,4.74-6H43.05V56.42H65.24v6.23A20.37,20.37,0,0,1,62,73,19.93,19.93,0,0,1,53.27,81a25.21,25.21,0,0,1-10.88,2.55,22.29,22.29,0,0,1-16.81-7.22,24.93,24.93,0,0,1-6.85-17.83A23.61,23.61,0,0,1,25.78,41.3a23,23,0,0,1,17-7.14Q55.42,34.16,62.24,45.25Z" style="fill:#ffffff" />
      <path d="M74.73,34.82h27.06v9.52H85.09V54h16.7v9.38H85.09v10h16.7V82.9H74.73Z" style="fill:#ffffff" />
      <path d="M144.06,34.82H154.2V82.9H144.11l-22-31.13V82.9H111.76V34.82H122l22,30.9Z" style="fill:#ffffff" />
      <path d="M165.63,34.82h27.06v9.52H176V54h16.7v9.38H176v10h16.7V82.9H165.63Z" style="fill:#ffffff" />
      <path d="M203.06,34.82H218.9q7.22,0,11.42,3.8a13.2,13.2,0,0,1,4.2,10.29,17.61,17.61,0,0,1-1.93,7.69q-1.92,4-7.1,6.25L239,82.9H227L214.6,64.3h-1.18V82.9H203.06Zm10.44,8.57V55.91h2.24q8.12,0,8.12-6.63a5.09,5.09,0,0,0-2.11-4.3,9.56,9.56,0,0,0-5.86-1.59Z" style="fill:#ffffff" />
      <path d="M265.28,34.82h8L292.89,82.9H282.47l-3.85-9.45H260.16l-3.77,9.45H246Zm4,15.74-5.65,14.18h11.43Z" style="fill:#ffffff" />
      <path d="M294.07,34.82h32.34V45h-11V82.9H305V45H294.07Z" style="fill:#ffffff" />
      <path d="M334.47,34.82h10.36V82.9H334.47Z" style="fill:#ffffff" />
      <path d="M352.2,34.82h10.49l12.16,32,12.18-32h10.5L379.33,82.9h-9Z" style="fill:#ffffff" />
      <path d="M405.52,34.82h27.06v9.52h-16.7V54h16.7v9.38h-16.7v10h16.7V82.9H405.52Z" style="fill:#ffffff" />
      <path d="M20.86,124.82H31.22V172.9H20.86Z" style="fill:#ffffff" />
      <path d="M72.92,124.82H83.07V172.9H73L51,141.77V172.9H40.62V124.82H50.87l22.05,30.9Z" style="fill:#ffffff" />
      <path d="M89.72,124.82h32.34V135H111V172.9H100.67V135h-11Z" style="fill:#ffffff" />
      <path d="M129.29,124.82h27.07v9.52h-16.7V144h16.7v9.38h-16.7v10h16.7v9.52H129.29Z" style="fill:#ffffff" />
      <path d="M165.32,124.82h15.84q7.22,0,11.42,3.8a13.2,13.2,0,0,1,4.2,10.29,17.75,17.75,0,0,1-1.93,7.69q-1.92,4-7.1,6.25l13.46,20.05H189.3l-12.45-18.6h-1.17v18.6H165.32Zm10.43,8.57v12.52H178q8.12,0,8.12-6.63A5.12,5.12,0,0,0,184,135a9.59,9.59,0,0,0-5.87-1.59Z" style="fill:#ffffff" />
      <path d="M226.13,124.82h8l19.59,48.08H243.32l-3.85-9.45H221l-3.76,9.45H206.87Zm4,15.74-5.65,14.18h11.43Z" style="fill:#ffffff" />
      <path d="M293.5,127.38V139.1q-7.8-4.69-13.65-4.69a11.81,11.81,0,0,0-9.38,4q-3.51,4-3.51,10.84,0,6.45,3.69,10.31a13.09,13.09,0,0,0,9.89,3.86c3.61,0,7.94-1.45,13-4.36v11.65q-8.44,2.82-14.09,2.82a21.91,21.91,0,0,1-16.48-7.12,24.27,24.27,0,0,1-6.78-17.38,24.64,24.64,0,0,1,6.9-17.67,22.36,22.36,0,0,1,16.8-7.23A33.83,33.83,0,0,1,293.5,127.38Z" style="fill:#ffffff" />
      <path d="M298.29,124.82h32.34V135h-11V172.9H309.24V135H298.29Z" style="fill:#ffffff" />
      <path d="M337.28,124.82h10.36V172.9H337.28Z" style="fill:#ffffff" />
      <path d="M353.6,124.82h10.49l12.16,32,12.18-32h10.51L380.73,172.9h-9Z" style="fill:#ffffff" />
      <path d="M405.52,124.82h27.06v9.52h-16.7V144h16.7v9.38h-16.7v10h16.7v9.52H405.52Z" style="fill:#ffffff" />
      <path d="M38.06,214.82h8L65.68,262.9H55.25l-3.85-9.45H33l-3.77,9.45H18.81Zm4,15.74-5.65,14.18H47.85Z" style="fill:#ffffff" />
      <path d="M115,214.82H125.1V262.9H115L93,231.77V262.9H82.65V214.82H92.9l22,30.9Z" style="fill:#ffffff" />
      <path d="M144.45,214.82h10.36V262.9H144.45Z" style="fill:#ffffff" />
      <path d="M178.09,214.82H190.4l9,28.82,9-28.82H220.3l6.19,48.08h-9.87l-4.24-33.84L201.79,262.9h-4.7l-10.86-34.13-4,34.13h-10Z" style="fill:#ffffff" />
      <path d="M260.93,214.82h8l19.58,48.08H278.11l-3.84-9.45H255.81L252,262.9H241.67Zm4,15.74-5.65,14.18h11.42Z" style="fill:#ffffff" />
      <path d="M298.23,214.82h32.33V225h-11V262.9H309.18V225H298.23Z" style="fill:#ffffff" />
      <path d="M347.72,214.82h27.06v9.52h-16.7V234h16.7v9.38h-16.7v10h16.7v9.52H347.72Z" style="fill:#ffffff" />
      <path d="M393.54,214.82H410q10.51,0,16.92,6.62t6.41,17.47q0,10.88-6.61,17.43t-17.6,6.56H393.54ZM404,223.9v29.7h4.1a15.65,15.65,0,0,0,10.48-3.48q4.1-3.48,4.1-11.61a17.26,17.26,0,0,0-2-8.37A10.1,10.1,0,0,0,415,225.2a21.78,21.78,0,0,0-7.16-1.3Z" style="fill:#ffffff" />
      <path d="M19.8,328.84q0-10.66,7.05-17.6a23,23,0,0,1,16.71-6.94q10.69,0,17.69,7a25.73,25.73,0,0,1,.07,35.21,23.51,23.51,0,0,1-17.43,7q-10.5,0-17.3-7T19.8,328.84ZM44,313.9a11.92,11.92,0,0,0-9.74,4.17,16.32,16.32,0,0,0-3.7,11.06,15.32,15.32,0,0,0,3.77,10.62A12.23,12.23,0,0,0,43.89,344a12.47,12.47,0,0,0,9.76-4.15q3.72-4.15,3.72-11t-3.64-10.77A12.7,12.7,0,0,0,44,313.9Z" style="fill:#ffffff" />
      <path d="M119.45,304.82h10.14V352.9H119.5l-22-31.13V352.9H87.15V304.82H97.39l22.06,30.9Z" style="fill:#ffffff" />
      <path d="M146.22,332.43h21.13v9.45H146.22Z" style="fill:#ffffff" />
      <path d="M220.2,307.38V319.1q-7.8-4.69-13.66-4.69a11.82,11.82,0,0,0-9.38,4q-3.51,4-3.51,10.84,0,6.45,3.7,10.31a13.06,13.06,0,0,0,9.89,3.86q5.41,0,13-4.36v11.65q-8.46,2.82-14.1,2.82a21.92,21.92,0,0,1-16.48-7.12,24.26,24.26,0,0,1-6.77-17.38,24.64,24.64,0,0,1,6.9-17.67,22.34,22.34,0,0,1,16.79-7.23A33.88,33.88,0,0,1,220.2,307.38Z" style="fill:#ffffff" />
      <path d="M238.66,304.82H249v18.53h17V304.82h10.37V352.9H266.05V333.78H249V352.9H238.66Z" style="fill:#ffffff" />
      <path d="M313.84,304.82h8l19.59,48.08H331l-3.85-9.45H308.73L305,352.9H294.58Zm4,15.74-5.66,14.18h11.43Z" style="fill:#ffffff" />
      <path d="M359,304.82h10.36V352.9H359Z" style="fill:#ffffff" />
      <path d="M421.56,304.82H431.7V352.9H421.61l-22-31.13V352.9H389.26V304.82h10.25l22.05,30.9Z" style="fill:#ffffff" />
      <rect x="5" y="5" width="443" height="376" style="fill:none;stroke:#ffffff;stroke-miterlimit:10;stroke-width:10px" />
    </g>
    <g id="launch-date" data-name="Layer 2" transform="translate(192 106) scale(0.45)">
      <g id="Layer_1-2" data-name="Layer 1"><text transform="translate(0.5 59.58)" style="font-size:72px;fill:#fff;stroke:#fff;stroke-miterlimit:10;font-family:TwCenMT-Bold, Tw Cen MT;font-weight:700">
          <tspan style="letter-spacing:0.2671712239583333em">D</tspan>
          <tspan x="64.94" y="0" style="letter-spacing:0.22713216145833334em">R</tspan>
          <tspan x="123.27" y="0" style="letter-spacing:0.2671712239583333em">OPIN</tspan>
          <tspan x="359.96" y="0">G</tspan>
          <tspan x="68.08" y="86.4">9PM U</tspan>
          <tspan x="266.4" y="86.4" style="letter-spacing:-0.02001953125em">T</tspan>
          <tspan x="299.44" y="86.4">C</tspan>
          <tspan x="0" y="172.8" style="letter-spacing:0.5279269748263888em">FRI</tspan>
          <tspan x="209.2" y="172.8" style="letter-spacing:0.4581095377604167em">D</tspan>
          <tspan x="287.89" y="172.8" style="letter-spacing:0.4180636935763889em">A</tspan>
          <tspan x="367.52" y="172.8">Y</tspan>
          <tspan x="54.74" y="259.2" style="letter-spacing:-0.02001953125em">J</tspan>
          <tspan x="84.02" y="259.2" xml:space="preserve">AN 29th</tspan>
        </text></g>
    </g>
  </defs>
  <g id="Layer_2" data-name="Layer 2">
    <g id="vector">
      <path class="cls-3" d="M464.57,333.29V463.85c11.24,19.69,21.85,36.68,30.11,46.83.69.79,1.32,2.87,1.88,6,11.49-13.29,23-25.76,34.22-37.16C513.54,438.25,478.88,363.83,464.57,333.29Z" />
      <path class="cls-3" d="M383,644.53H342.55c7.8,8.43,20.29,33,32.23,60.36A590.65,590.65,0,0,1,407,641.38c0-.15,0-.29,0-.44A81.48,81.48,0,0,1,383,644.53Z" />
      <path class="cls-4" d="M479.1,162.08q-7.25-7.8-14.53-15.36V333.29c9.93,21.19,29.66,63.51,46.57,101.22,35.54-23.48,61.59-48,69-77.24C594.36,300.26,537.78,225.24,479.1,162.08Z" />
      <path class="cls-4" d="M82.44,483.46c.15-.23.29-.47.44-.71C82.73,483,82.59,483.23,82.44,483.46Z" />
      <path class="cls-4" d="M80.82,486.1l.51-.82Z" />
      <path class="cls-4" d="M79.21,488.67l.57-.9Z" />
      <path class="cls-4" d="M84.08,480.77l.33-.54Z" />
      <path class="cls-4" d="M85.75,478l0-.05Z" />
      <path class="cls-4" d="M89,344V54.6C71,64.58,55.17,77.12,42.48,92.37-8.51,154-7.68,259.47,14.12,362.16a657.14,657.14,0,0,0,25.47,90C55.46,416.17,76.28,371.24,89,344Z" />
      <path class="cls-4" d="M89,472.53l0,0,0-.07Z" />
      <path class="cls-4" d="M77.62,491.17l.6-.94Z" />
      <path class="cls-4" d="M70.05,502.49l.69-1Z" />
      <path class="cls-4" d="M67.18,506.44l.74-1Z" />
      <path class="cls-4" d="M68.61,504.5l.71-1Z" />
      <path class="cls-4" d="M65.62,508.5l.94-1.22Z" />
      <path class="cls-4" d="M74.52,495.94l.65-1Z" />
      <path class="cls-4" d="M76.05,493.6l.64-1Z" />
      <path class="cls-4" d="M73,498.21l.67-1Z" />
      <path class="cls-4" d="M71.51,500.4l.68-1Z" />
      <path class="cls-3" d="M89,344C72.75,378.79,43.26,442.5,27.8,479.51,39,490.91,50.53,503.38,62,516.67c.55-3.12,1.19-5.2,1.88-6,7-8.63,15.73-22.18,25.09-38.14Z" />
      <path class="cls-5" d="M538.57,755.13c-4-12-19.21-74.62-19.21-84.92s21.51-150,21.51-162.71c0-10.46-55.85-130.56-75.77-173.06" />
      <path class="cls-5" d="M342.91,644.92c19,21.33,64.34,133.82,64.34,154.37" />
      <path class="cls-5" d="M20,755.13c4-12,19.21-74.62,19.21-84.92s-21.51-150-21.51-162.71C17.71,497.75,66.29,392.63,89,344" />
      <path class="cls-5" d="M216.29,644.25c-18.6,19.5-65,134.26-65,155" />
      <path class="cls-5" d="M89,344l.14-.3" />
      <path class="cls-3" d="M134.88,60.13H430.23a15.53,15.53,0,0,1,15.53,15.53V257.82A49.73,49.73,0,0,1,396,307.55H134.88A15.53,15.53,0,0,1,119.35,292V75.66a15.53,15.53,0,0,1,15.53-15.53Z" />
      <line class="cls-5" x1="88.99" y1="38.86" x2="464.57" y2="38.86" />
      <line class="cls-5" x1="119.35" y1="1.25" x2="119.35" y2="38.86" />
      <line class="cls-5" x1="443.78" y1="1.25" x2="443.78" y2="38.86" />
      <rect x="178.55" y="88.34" width="208.82" height="189.52" />
      <circle cx="143.08" cy="155.28" r="5.76" />
      <g>
        <use xlink:href="#logo" />
        <animate attributeName="opacity" dur="15s" values="0;1;1;0;0" keyTimes="0;0.05;0.25;0.3;1" repeatCount="indefinite" />
      </g>
      <g>
        <use xlink:href="#GenIntAnim" />
        <animate attributeName="opacity" dur="15s" values="0;0;1;1;0;0" keyTimes="0;0.3;0.35;0.55;0.6;1" repeatCount="indefinite" />
      </g>
      <g>
        <use xlink:href="#launch-date" />
        <animate attributeName="opacity" dur="15s" values="0;0;1;1;0;0" keyTimes="0;0.6;0.65;0.8;0.975;1" repeatCount="indefinite" />
      </g>
      <rect class="cls-5" x="133.83" y="16.11" width="73.37" height="16.06" rx="8.03" />
      <rect x="208.74" y="529.35" width="45.09" height="11.61" rx="5.24" transform="translate(-211.52 155.94) rotate(-26.05)" />
      <rect x="274.45" y="529.35" width="45.09" height="11.61" rx="5.24" transform="translate(-204.84 184.79) rotate(-26.05)" />
      <circle cx="362.48" cy="451.03" r="22.9" />
      <path class="cls-5" d="M148.94,683.16c7.71-33.75-1.86-140.86-18.34-152.82,19.14-19.93,50-109.23,50-144.71,0-23.52-9.57-56.74-17-56.74C150.8,355.47,92.87,475.06,63.9,510.68c-3.53,4.08-5.85,42.13-1.41,82.55" />
      <path class="cls-5" d="M409.64,683.16C401.93,649.41,411.5,542.3,428,530.34c-19.13-19.93-50-109.23-50-144.71,0-23.52,9.57-56.74,17-56.74,12.76,26.58,70.69,146.17,99.66,181.79,3.19,3.69,5.39,35.12,2.51,71" />
      <path class="cls-3" d="M153.39,644.53a587.17,587.17,0,0,1,30.41,60.36C195.74,677.54,208.23,653,216,644.53Z" />
      <path class="cls-5" d="M406.55,641.09A81.53,81.53,0,0,1,383,644.53H151.63" />
      <path class="cls-5" d="M89,472.42V13.51A12.26,12.26,0,0,1,101.25,1.25H452.3a12.27,12.27,0,0,1,12.27,12.26v450.2" />
      <path d="M183.18,393.41h-3c-2.28,24.42-14,64.16-26.77,95.23a3.81,3.81,0,0,0,2.79,1.22h27A3.82,3.82,0,0,0,187,486V397.23A3.82,3.82,0,0,0,183.18,393.41Z" />
      <path d="M214.09,424.32H174.51c-2.72,11.07-6.19,22.94-10.1,34.63h49.68a3.82,3.82,0,0,0,3.82-3.82v-27A3.82,3.82,0,0,0,214.09,424.32Z" />
      <path d="M446,430.11A22.9,22.9,0,0,0,428.74,397C434.26,407.78,440.09,419,446,430.11Z" />
    </g>
  </g>
</svg>