<svg width="915" height="349" viewBox="0 0 915 349" fill="none" xmlns="http://www.w3.org/2000/svg">
<path d="M340.916 170.911C340.712 165.301 341.646 159.707 343.661 154.466C345.676 149.224 348.731 144.444 352.643 140.412C356.554 136.379 361.241 133.178 366.423 131C371.604 128.822 377.173 127.713 382.795 127.738C403.977 127.738 416.513 140.15 420.296 154.721L407.003 159.201C405.833 153.768 402.742 148.939 398.295 145.598C393.849 142.258 388.345 140.63 382.795 141.014C369.069 141.014 355.344 150.998 355.344 171.181C355.344 191.364 368.745 200.97 382.957 200.97C388.538 201.132 394.012 199.417 398.5 196.099C402.988 192.782 406.23 188.054 407.705 182.676L420.62 186.885C418.409 195.097 413.451 202.305 406.57 207.312C399.688 212.319 391.298 214.823 382.795 214.408C377.122 214.514 371.49 213.449 366.249 211.278C361.009 209.108 356.274 205.879 352.342 201.795C348.41 197.711 345.365 192.86 343.399 187.545C341.433 182.231 340.588 176.567 340.916 170.911Z" fill="#375BD2"/>
<path d="M446.233 212.411H432.616V127.522H446.233V160.82C448.217 158.477 450.706 156.615 453.513 155.371C456.321 154.128 459.375 153.537 462.444 153.642C476.548 153.642 483.356 163.734 483.356 176.308V212.411H470.118V178.628C470.366 176.985 470.24 175.307 469.75 173.719C469.259 172.131 468.417 170.673 467.285 169.455C466.153 168.236 464.761 167.288 463.212 166.681C461.663 166.073 459.997 165.822 458.338 165.946C456.691 165.948 455.062 166.291 453.555 166.954C452.048 167.617 450.695 168.585 449.582 169.798C448.47 171.011 447.622 172.441 447.092 173.998C446.562 175.555 446.361 177.206 446.504 178.844L446.233 212.411Z" fill="#375BD2"/>
<path d="M513.779 179.708L528.423 177.441C531.719 177.009 532.638 175.336 532.638 173.34C532.638 168.537 529.396 164.651 521.831 164.651C520.372 164.526 518.903 164.698 517.512 165.157C516.122 165.616 514.84 166.352 513.743 167.321C512.647 168.29 511.759 169.472 511.133 170.794C510.508 172.116 510.158 173.551 510.105 175.013L497.676 172.206C498.703 162.331 507.673 153.534 521.722 153.534C539.338 153.534 546.039 163.518 546.039 175.121V203.453C546.008 206.525 546.243 209.595 546.741 212.627H534.043C533.607 210.224 533.426 207.782 533.502 205.342C531.606 208.245 528.983 210.604 525.893 212.185C522.804 213.766 519.354 214.513 515.886 214.354C513.469 214.553 511.036 214.259 508.735 213.492C506.434 212.725 504.313 211.5 502.5 209.891C500.686 208.282 499.218 206.322 498.185 204.13C497.152 201.938 496.574 199.56 496.487 197.139C496.487 186.723 503.998 181.111 513.779 179.708ZM532.638 188.882V186.292L517.724 188.504C515.697 188.573 513.775 189.419 512.356 190.866C510.938 192.313 510.131 194.25 510.105 196.275C510.122 197.321 510.356 198.351 510.792 199.302C511.229 200.252 511.858 201.101 512.64 201.796C513.423 202.491 514.341 203.016 515.337 203.339C516.333 203.661 517.385 203.773 518.426 203.669C520.394 203.869 522.382 203.619 524.239 202.938C526.096 202.256 527.772 201.161 529.142 199.736C530.512 198.311 531.539 196.593 532.145 194.712C532.75 192.831 532.919 190.838 532.638 188.882V188.882Z" fill="#375BD2"/>
<path d="M569.166 126.335C570.346 126.321 571.517 126.541 572.612 126.982C573.706 127.423 574.702 128.076 575.541 128.905C576.38 129.733 577.047 130.719 577.502 131.807C577.956 132.894 578.191 134.061 578.191 135.24C578.191 137.587 577.257 139.838 575.595 141.498C573.933 143.158 571.679 144.09 569.329 144.09C566.978 144.09 564.724 143.158 563.062 141.498C561.4 139.838 560.467 137.587 560.467 135.24C560.466 132.915 561.376 130.682 563.001 129.018C564.627 127.354 566.839 126.391 569.166 126.335ZM562.52 212.681V155.315H575.975V212.411L562.52 212.681Z" fill="#375BD2"/>
<path d="M607.208 212.411H593.591V155.315H606.884V162.924C608.609 160.003 611.09 157.6 614.066 155.966C617.042 154.333 620.403 153.53 623.797 153.642C637.739 153.642 644.439 163.734 644.439 176.308V212.411H630.822V178.628C630.822 171.613 627.634 165.946 619.096 165.946C617.397 165.957 615.719 166.326 614.172 167.03C612.626 167.734 611.246 168.756 610.123 170.03C609.001 171.304 608.161 172.801 607.658 174.423C607.156 176.044 607.002 177.753 607.208 179.438V212.411Z" fill="#375BD2"/>
<path d="M661.029 212.411V127.522H674.646V212.411H661.029Z" fill="#375BD2"/>
<path d="M698.962 126.335C701.327 126.335 703.595 127.273 705.267 128.943C706.939 130.613 707.878 132.878 707.878 135.24C707.867 136.985 707.34 138.689 706.362 140.136C705.384 141.583 704 142.709 702.383 143.372C700.765 144.036 698.988 144.206 697.274 143.863C695.56 143.52 693.986 142.678 692.75 141.444C691.514 140.209 690.671 138.637 690.327 136.925C689.984 135.214 690.155 133.438 690.819 131.823C691.483 130.208 692.61 128.826 694.059 127.849C695.508 126.873 697.214 126.346 698.962 126.335V126.335ZM692.262 212.681V155.315H705.771V212.411L692.262 212.681Z" fill="#375BD2"/>
<path d="M737.004 212.411H723.387V155.315H736.626V162.924C738.359 160.011 740.842 157.614 743.816 155.982C746.79 154.35 750.147 153.542 753.539 153.642C767.534 153.642 774.235 163.734 774.235 176.308V212.411H760.618V178.628C760.866 176.985 760.74 175.307 760.25 173.719C759.759 172.131 758.917 170.673 757.785 169.455C756.654 168.236 755.261 167.288 753.712 166.681C752.163 166.073 750.497 165.822 748.838 165.946C747.14 165.956 745.464 166.325 743.92 167.029C742.376 167.734 740.999 168.757 739.881 170.032C738.762 171.308 737.927 172.805 737.431 174.427C736.935 176.048 736.79 177.756 737.004 179.438V212.411Z" fill="#375BD2"/>
<path d="M820.814 179.438L844.807 212.411H828.109L811.304 188.882L804.279 196.275V212.465H790.77V127.522H804.279V178.413L826.218 155.315H844.32L820.814 179.438Z" fill="#375BD2"/>
<path d="M179.563 104.587L238.463 138.37V206.205L179.725 240.204L120.826 206.475V138.639L179.563 104.587ZM179.563 54.7218L157.949 67.242L99.1029 101.295L77.4883 113.815V138.747V206.529V231.461L99.1029 243.874L158.003 277.657L179.617 290.069L201.232 277.549L259.97 243.496L281.584 231.03V206.097V138.262V113.329L259.97 100.917L201.07 67.134L179.455 54.7218H179.563Z" fill="#375BD2"/>
</svg>
