<svg width="116" height="116" viewBox="0 0 116 116" fill="none" xmlns="http://www.w3.org/2000/svg">
<path fill-rule="evenodd" clip-rule="evenodd" d="M29 0C45.0163 0 58 12.9838 58 29C58 45.0162 45.0163 58 29 58C12.9837 58 0 45.0162 0 29C0 12.9838 12.9837 0 29 0ZM49.7505 29.1716C49.7505 40.7336 40.4044 50.1066 28.8753 50.1066C17.3462 50.1066 8 40.7336 8 29.1716C8 17.6096 17.3462 8.23669 28.8753 8.23669C40.4044 8.23669 49.7505 17.6096 49.7505 29.1716Z" transform="scale(2)" fill="#fff"/>
<path fill-rule="evenodd" clip-rule="evenodd" d="M13.654 1.42334C13.654 1.95007 13.376 2.40955 12.9534 2.65613V3.9624L12.9991 3.96863L15.0452 4.23767C15.0505 4.23767 15.0559 4.23767 15.0612 4.23889L15.0563 4.22546C15.061 4.22546 15.0638 4.22546 15.0662 4.22632C15.0694 4.22742 15.0721 4.23022 15.0786 4.23669C15.4344 4.41602 18.9594 7.52039 18.9594 12.1152C18.9594 16.5764 17.5634 17.4541 16.9402 17.8459L16.9391 17.8467C16.8614 17.8955 16.7958 17.9369 16.7465 17.9766C16.6798 18.0214 16.5909 18.0214 16.5352 17.9653L16.4929 17.9238L16.4823 17.9135C16.1471 17.5826 15.3513 16.7977 13.6997 16.5645C13.4662 16.5309 13.2326 16.5084 12.9991 16.4861L12.9533 16.483L12.9533 19.7252H16.8689C17.8141 19.7252 18.5925 19.0529 18.7815 18.1675C18.7926 18.1002 18.8593 18.0442 18.9372 18.0442C20.84 18.0442 22.7183 17.6144 24.4318 16.7867L24.7751 16.6208C24.8977 16.5591 25.0414 16.5771 25.1481 16.653C25.246 16.7227 25.32 16.8369 25.32 16.957C25.32 17.0916 25.2422 17.2261 25.1087 17.2933C23.5422 18.0514 22.5655 19.6057 21.9911 21.2485C21.7312 21.9922 21.3972 22.7002 20.9985 23.3647C20.7389 23.7972 20.2409 24.0708 19.7823 23.8607L19.0706 23.5469C18.5369 23.3115 17.9586 23.3115 17.4249 23.5469L16.7132 23.8607C16.1794 24.0961 15.6012 24.0961 15.0674 23.8607L14.3558 23.5469C13.822 23.3115 13.2438 23.3115 12.7101 23.5469L11.9984 23.8607C11.4646 24.0961 10.8864 24.0961 10.3526 23.8607L9.64096 23.5469C9.10721 23.3115 8.52896 23.3115 7.99521 23.5469L7.28354 23.8607C6.74979 24.0961 6.16043 24.0961 5.63779 23.8607L4.92612 23.5469C4.39236 23.3115 3.80301 23.3115 3.28036 23.5469L2.6243 23.8383C2.31311 23.9755 1.96118 23.8201 1.77692 23.5342C0.638306 21.7677 0 19.6846 0 17.4502C0 17.2933 0 17.1364 0.0111084 16.9795C0.0111084 16.8899 0.0889587 16.8226 0.166809 16.8226H6.19379C6.28275 16.8226 6.34946 16.8899 6.34946 16.9795V17.7528C6.34946 18.8398 7.22794 19.7252 8.30655 19.7252H11.5411V16.4657C10.8056 16.5007 10.2006 16.588 9.84109 16.6429C9.77829 16.6534 9.72537 16.6243 9.69153 16.5835L9.68542 16.5879C9.65207 16.5431 9.64093 16.4871 9.67429 16.431C9.9523 15.837 10.4972 14.2119 10.3971 10.7041C10.2859 6.90491 8.96262 4.43933 8.45111 3.63245C8.37326 3.52039 8.47336 3.37463 8.60678 3.38586L11.5411 3.77222V2.64954C11.1248 2.40137 10.8517 1.94543 10.8517 1.42334C10.8517 0.638794 11.4856 0 12.264 0C13.0424 0 13.654 0.638794 13.654 1.42334ZM8.6958 15.3866V9.22266C8.6958 9.16663 8.66245 9.09937 8.60684 9.07703L5.81573 7.76575C5.73788 7.73218 5.63782 7.76575 5.60446 7.85547L2.71329 15.3193C2.66882 15.4314 2.74664 15.5435 2.85785 15.5435H8.5401C8.62906 15.5435 8.6958 15.4763 8.6958 15.3866Z" transform="translate(34 32.2) scale(2)" fill="#fff"/>
</svg>
