<?xml version="1.0" encoding="UTF-8"?><!DOCTYPE svg PUBLIC "-//W3C//DTD SVG 1.1//EN" "http://www.w3.org/Graphics/SVG/1.1/DTD/svg11.dtd"><svg xmlns="http://www.w3.org/2000/svg" xmlns:xlink="http://www.w3.org/1999/xlink" width="100%" height="100%" viewBox="0 0 2400 2400" style="stroke-width:0;margin: auto;height: -webkit-fill-available"><metadata><contract>0x463CA08A09247FA2F11F80BA04E22BAFD608FAFD</contract><rendered-at>1610049659</rendered-at><token><id>100</id><owner>0x0000000000000000000000000000000000000000</owner></token><animation><animated>true</animated><id>63</id></animation><color><scheme>2</scheme><hue>222</hue><saturation>80</saturation><lightness>70</lightness><contrast>30</contrast><shades>0</shades></color><shapes><count>16</count><hatching>2</hatching><size><width>111-222</width><height>150-200</height></size></shapes><placement><rows>15</rows><columns>15</columns><spread>0</spread></placement><mirror><mirror-mode>9</mirror-mode></mirror></metadata><defs><symbol id="shapes"><rect x="140" y="140" width="532" height="27" transform-origin="300 300" style="fill:hsl(282,80%,70%)"/><rect x="280" y="280" width="130" height="192" transform-origin="300 300" style="fill:hsl(402,80%,70%)"/><rect x="140" y="420" width="32" height="525" transform-origin="300 300" style="fill:hsl(222,80%,70%)"/><rect x="420" y="525" width="210" height="161" transform-origin="300 300" style="fill:hsl(462,80%,70%)"/><rect x="245" y="490" width="538" height="24" transform-origin="300 300" style="fill:hsl(222,80%,70%)"/><rect x="245" y="280" width="126" height="165" transform-origin="300 300" style="fill:hsl(282,80%,70%)"/><rect x="105" y="0" width="35" height="525" transform-origin="300 300" style="fill:hsl(222,80%,70%)"/><rect x="70" y="385" width="112" height="187" transform-origin="300 300" style="fill:hsl(402,80%,70%)"/><rect x="140" y="455" width="39" height="513" transform-origin="300 300" style="fill:hsl(402,80%,70%)"/><rect x="105" y="175" width="161" height="162" transform-origin="300 300" style="fill:hsl(222,80%,70%)"/><rect x="280" y="280" width="25" height="525" transform-origin="300 300" style="fill:hsl(222,80%,70%)"/><rect x="280" y="70" width="133" height="156" transform-origin="300 300" style="fill:hsl(462,80%,70%)"/><rect x="455" y="140" width="536" height="19" transform-origin="300 300" style="fill:hsl(282,80%,70%)"/><rect x="175" y="385" width="218" height="200" transform-origin="300 300" style="fill:hsl(282,80%,70%)"/><rect x="105" y="280" width="530" height="25" transform-origin="300 300" style="fill:hsl(222,80%,70%)"/><rect x="280" y="140" width="215" height="150" transform-origin="300 300" style="fill:hsl(402,80%,70%)"/></symbol></defs><symbol id="quad3"><symbol id="quad2"><symbol id="quad1"><symbol id="quad0"><g><use xlink:href="#shapes"/></g></symbol><g transform="scale(1 1) translate(0 0)"><use xlink:href="#quad0"/></g><g transform="scale(-1 -1) translate(-600 -600)"><use xlink:href="#quad0"/></g></symbol><g transform="scale(-1 1) translate(-1200 0)"><use xlink:href="#quad1"/></g><g transform="scale(1 -1) translate(0 -1200)"><use xlink:href="#quad1"/></g></symbol><g transform="scale(1 1) translate(0 0)"><use xlink:href="#quad2"/></g></symbol><g transform="scale(2 2)"><use xlink:href="#quad3"/></g></svg>
