<svg
  xmlns="http://www.w3.org/2000/svg"
  xmlns:xlink="http://www.w3.org/1999/xlink"
  width="100%"
  height="100%"
  viewBox="0 0 2600 2600"
  style="stroke-width:0; background-color:#121212;"
>

<symbol id="quad4">
<symbol id="quad3">
<symbol id="quad2">
<symbol id="quad">

<rect
            x="470"
            y="-15"
            width="25"
            height="731"
            style="fill:#940044; fill-opacity:1.0;"
          />
 <rect
            x="69"
            y="491"
            width="221"
            height="443"
            style="fill:#0000fb; fill-opacity:1.0;"
          />
 <rect
            x="452"
            y="473"
            width="28"
            height="725"
            style="fill:#550000; fill-opacity:1.0;"
          />
 <rect
            x="310"
            y="48"
            width="124"
            height="341"
            style="fill:#610000; fill-opacity:1.0;"
          />
 <rect
            x="8"
            y="-48"
            width="35"
            height="730"
            style="fill:#74ab00; fill-opacity:1.0;"
          />
 <rect
            x="-82"
            y="97"
            width="163"
            height="385"
            style="fill:#9e0000; fill-opacity:1.0;"
          />
 <rect
            x="25"
            y="-75"
            width="740"
            height="25"
            style="fill:#cecece; fill-opacity:1.0;"
          />
 <rect
            x="438"
            y="78"
            width="180"
            height="359"
            style="fill:#610000; fill-opacity:1.0;"
          />
 <rect
            x="381"
            y="40"
            width="35"
            height="729"
            style="fill:#cecece; fill-opacity:1.0;"
          />
 <rect
            x="-11"
            y="334"
            width="211"
            height="433"
            style="fill:#74ab00; fill-opacity:1.0;"
          />
 <rect
            x="472"
            y="73"
            width="737"
            height="25"
            style="fill:#550000; fill-opacity:1.0;"
          />

</symbol>
<g>
<use xlink:href="#quad" />
</g>
<g transform="scale(-1 1) translate(-750 0)">
<use xlink:href="#quad" />
</g>
<g transform="scale(-1 -1) translate(-750 -750)">
<use xlink:href="#quad" />
</g>
<g transform="scale(1 -1) translate(0 -750)">
<use xlink:href="#quad" />
</g>
</symbol>
<g>
<use xlink:href="#quad2" />
</g>
<g transform="scale(-1 1) translate(-1300 0)">
<use xlink:href="#quad2" />
</g>
<g transform="scale(-1 -1) translate(-1300 -1300)">
<use xlink:href="#quad2" />
</g>
<g transform="scale(1 -1) translate(0 -1300)">
<use xlink:href="#quad2" />
</g>
</symbol>
<g>
<use xlink:href="#quad3" />
</g>
<g transform="scale(-1 1) translate(-2600 0)">
<use xlink:href="#quad3" />
</g>
<g transform="scale(-1 -1) translate(-2600 -2600)">
<use xlink:href="#quad3" />
</g>
<g transform="scale(1 -1) translate(0 -2600)">
<use xlink:href="#quad3" />
</g>
</symbol>
<g transform="scale(1.0 1.0)">
<use xlink:href="#quad4" />
</g>
</svg>
