<svg
  xmlns="http://www.w3.org/2000/svg"
  xmlns:xlink="http://www.w3.org/1999/xlink"
  width="100%"
  height="100%"
  viewBox="0 0 2600 2600"
  style="stroke-width:0; background-color:#121212;"
>

<symbol id="upperleftquad4">
<symbol id="upperleftquad3">
<symbol id="upperleftquad2">
<symbol id="upperleftquad">

<rect
            x="701"
            y="150"
            width="31"
            height="725"
            style="fill:#350000; fill-opacity:1.0;"
          />
<rect
            x="389"
            y="167"
            width="187"
            height="167"
            style="fill:#860000; fill-opacity:1.0;"
          />
<rect
            x="471"
            y="320"
            width="726"
            height="31"
            style="fill:#890000; fill-opacity:1.0;"
          />
<rect
            x="257"
            y="491"
            width="205"
            height="190"
            style="fill:#e50000; fill-opacity:1.0;"
          />
<rect
            x="723"
            y="318"
            width="732"
            height="25"
            style="fill:#980000; fill-opacity:1.0;"
          />
<rect
            x="-97"
            y="635"
            width="139"
            height="170"
            style="fill:#860000; fill-opacity:1.0;"
          />
<rect
            x="218"
            y="-2"
            width="736"
            height="23"
            style="fill:#58004c; fill-opacity:1.0;"
          />
<rect
            x="431"
            y="-2"
            width="114"
            height="180"
            style="fill:#d10000; fill-opacity:1.0;"
          />
<rect
            x="175"
            y="-11"
            width="39"
            height="725"
            style="fill:#000028; fill-opacity:1.0;"
          />
<rect
            x="219"
            y="150"
            width="67"
            height="197"
            style="fill:#410000; fill-opacity:1.0;"
          />

</symbol>
<g>
<use xlink:href="#upperleftquad" />
</g>
<g transform="scale(-1 1) translate(-750 0)">
<use xlink:href="#upperleftquad" />
</g>
<g transform="scale(-1 -1) translate(-750 -750)">
<use xlink:href="#upperleftquad" />
</g>
<g transform="scale(1 -1) translate(0 -750)">
<use xlink:href="#upperleftquad" />
</g>
</symbol>
<g>
<use xlink:href="#upperleftquad2" />
</g>
<g transform="scale(-1 1) translate(-1300 0)">
<use xlink:href="#upperleftquad2" />
</g>
<g transform="scale(-1 -1) translate(-1300 -1300)">
<use xlink:href="#upperleftquad2" />
</g>
<g transform="scale(1 -1) translate(0 -1300)">
<use xlink:href="#upperleftquad2" />
</g>
</symbol>
<g>
<use xlink:href="#upperleftquad3" />
</g>
<g transform="scale(-1 1) translate(-2600 0)">
<use xlink:href="#upperleftquad3" />
</g>
<g transform="scale(-1 -1) translate(-2600 -2600)">
<use xlink:href="#upperleftquad3" />
</g>
<g transform="scale(1 -1) translate(0 -2600)">
<use xlink:href="#upperleftquad3" />
</g>
</symbol>
<g transform="scale(1.0 1.0)">
<use xlink:href="#upperleftquad4" />
</g>
</svg>
