<!--?xml version="1.0" encoding="UTF-8"?-->
<svg
  xmlns="http://www.w3.org/2000/svg"
  xmlns:xlink="http://www.w3.org/1999/xlink"
  width="100%"
  height="100%"
  viewBox="0 0 2600 2600"
  style="stroke-width:0; background-color:#121212;"
>

<symbol id="upperleftquad4">
<symbol id="upperleftquad3">
<symbol id="upperleftquad2">
<symbol id="upperleftquad">

<rect
            x="485"
            y="623"
            width="732"
            height="25"
            style="fill:#280053; fill-opacity:1.0;"
          />
<rect
            x="478"
            y="276"
            width="181"
            height="217"
            style="fill:#280053; fill-opacity:1.0;"
          />
<rect
            x="497"
            y="-72"
            width="734"
            height="17"
            style="fill:#410000; fill-opacity:1.0;"
          />
<rect
            x="173"
            y="576"
            width="252"
            height="214"
            style="fill:#009d9d; fill-opacity:1.0;"
          />
<rect
            x="26"
            y="184"
            width="33"
            height="725"
            style="fill:#ca0000; fill-opacity:1.0;"
          />
<rect
            x="358"
            y="467"
            width="264"
            height="206"
            style="fill:#009d9d; fill-opacity:1.0;"
          />
<rect
            x="199"
            y="510"
            width="740"
            height="25"
            style="fill:#fb0000; fill-opacity:1.0;"
          />
<rect
            x="330"
            y="22"
            width="275"
            height="204"
            style="fill:#410000; fill-opacity:1.0;"
          />
<rect
            x="353"
            y="652"
            width="30"
            height="725"
            style="fill:#000028; fill-opacity:1.0;"
          />
<rect
            x="596"
            y="258"
            width="154"
            height="202"
            style="fill:#410000; fill-opacity:1.0;"
          />
<rect
            x="307"
            y="192"
            width="27"
            height="735"
            style="fill:#280053; fill-opacity:1.0;"
          />
<rect
            x="182"
            y="240"
            width="129"
            height="235"
            style="fill:#58004c; fill-opacity:1.0;"
          />
<rect
            x="-41"
            y="86"
            width="36"
            height="725"
            style="fill:#410000; fill-opacity:1.0;"
          />
<rect
            x="300"
            y="313"
            width="140"
            height="201"
            style="fill:#58004c; fill-opacity:1.0;"
          />
<rect
            x="324"
            y="774"
            width="27"
            height="738"
            style="fill:#410000; fill-opacity:1.0;"
          />
<rect
            x="341"
            y="507"
            width="249"
            height="223"
            style="fill:#410000; fill-opacity:1.0;"
          />
<rect
            x="438"
            y="68"
            width="40"
            height="725"
            style="fill:#009d9d; fill-opacity:1.0;"
          />
<rect
            x="22"
            y="59"
            width="250"
            height="200"
            style="fill:#009d9d; fill-opacity:1.0;"
          />
<rect
            x="303"
            y="633"
            width="730"
            height="30"
            style="fill:#280053; fill-opacity:1.0;"
          />
<rect
            x="164"
            y="208"
            width="238"
            height="218"
            style="fill:#fb0000; fill-opacity:1.0;"
          />
<rect
            x="469"
            y="226"
            width="731"
            height="25"
            style="fill:#ca0000; fill-opacity:1.0;"
          />
<rect
            x="-10"
            y="431"
            width="307"
            height="209"
            style="fill:#58004c; fill-opacity:1.0;"
          />
<rect
            x="148"
            y="15"
            width="730"
            height="34"
            style="fill:#da0000; fill-opacity:1.0;"
          />
<rect
            x="481"
            y="204"
            width="140"
            height="237"
            style="fill:#280053; fill-opacity:1.0;"
          />
<rect
            x="-25"
            y="524"
            width="28"
            height="725"
            style="fill:#280053; fill-opacity:1.0;"
          />
<rect
            x="363"
            y="695"
            width="145"
            height="204"
            style="fill:#da0000; fill-opacity:1.0;"
          />
<rect
            x="118"
            y="439"
            width="732"
            height="30"
            style="fill:#ca0000; fill-opacity:1.0;"
          />
<rect
            x="162"
            y="67"
            width="218"
            height="210"
            style="fill:#58004c; fill-opacity:1.0;"
          />
<rect
            x="-42"
            y="393"
            width="727"
            height="25"
            style="fill:#280053; fill-opacity:1.0;"
          />
<rect
            x="305"
            y="463"
            width="256"
            height="216"
            style="fill:#410000; fill-opacity:1.0;"
          />
<rect
            x="139"
            y="200"
            width="732"
            height="22"
            style="fill:#58004c; fill-opacity:1.0;"
          />
<rect
            x="170"
            y="354"
            width="178"
            height="233"
            style="fill:#58004c; fill-opacity:1.0;"
          />
<rect
            x="125"
            y="380"
            width="733"
            height="25"
            style="fill:#58004c; fill-opacity:1.0;"
          />
<rect
            x="512"
            y="280"
            width="246"
            height="204"
            style="fill:#009d9d; fill-opacity:1.0;"
          />
<rect
            x="333"
            y="205"
            width="730"
            height="27"
            style="fill:#fb0000; fill-opacity:1.0;"
          />
<rect
            x="310"
            y="13"
            width="313"
            height="206"
            style="fill:#410000; fill-opacity:1.0;"
          />
<rect
            x="445"
            y="24"
            width="36"
            height="725"
            style="fill:#009d9d; fill-opacity:1.0;"
          />
<rect
            x="306"
            y="412"
            width="270"
            height="227"
            style="fill:#58004c; fill-opacity:1.0;"
          />
<rect
            x="42"
            y="304"
            width="39"
            height="724"
            style="fill:#410000; fill-opacity:1.0;"
          />
<rect
            x="344"
            y="174"
            width="305"
            height="231"
            style="fill:#000028; fill-opacity:1.0;"
          />
<rect
            x="470"
            y="793"
            width="737"
            height="25"
            style="fill:#280053; fill-opacity:1.0;"
          />

</symbol>
<g>
<use xlink:href="#upperleftquad" />
</g>
<g transform="scale(-1 1) translate(-750 0)">
<use xlink:href="#upperleftquad" />
</g>
<g transform="scale(-1 -1) translate(-750 -750)">
<use xlink:href="#upperleftquad" />
</g>
<g transform="scale(1 -1) translate(0 -750)">
<use xlink:href="#upperleftquad" />
</g>
</symbol>
<g>
<use xlink:href="#upperleftquad2" />
</g>
<g transform="scale(-1 1) translate(-1300 0)">
<use xlink:href="#upperleftquad2" />
</g>
<g transform="scale(-1 -1) translate(-1300 -1300)">
<use xlink:href="#upperleftquad2" />
</g>
<g transform="scale(1 -1) translate(0 -1300)">
<use xlink:href="#upperleftquad2" />
</g>
</symbol>
<g>
<use xlink:href="#upperleftquad3" />
</g>
<g transform="scale(-1 1) translate(-2600 0)">
<use xlink:href="#upperleftquad3" />
</g>
<g transform="scale(-1 -1) translate(-2600 -2600)">
<use xlink:href="#upperleftquad3" />
</g>
<g transform="scale(1 -1) translate(0 -2600)">
<use xlink:href="#upperleftquad3" />
</g>
</symbol>
<g transform="scale(1.0 1.0)">
<use xlink:href="#upperleftquad4" />
</g>
</svg>
