<svg
  xmlns="http://www.w3.org/2000/svg"
  xmlns:xlink="http://www.w3.org/1999/xlink"
  width="100%"
  height="100%"
  viewBox="0 0 2600 2600"
  style="stroke-width:0; background-color:#121212;"
>

<symbol id="upperleftquad4">
<symbol id="upperleftquad3">
<symbol id="upperleftquad2">
<symbol id="upperleftquad">

<rect
            x="-150"
            y="338"
            width="732"
            height="25"
            style="fill:#009d9d; fill-opacity:1.0;"
          />
<rect
            x="298"
            y="506"
            width="111"
            height="265"
            style="fill:#980000; fill-opacity:1.0;"
          />
<rect
            x="615"
            y="80"
            width="738"
            height="15"
            style="fill:#001b00; fill-opacity:1.0;"
          />
<rect
            x="507"
            y="811"
            width="216"
            height="250"
            style="fill:#da0000; fill-opacity:1.0;"
          />
<rect
            x="926"
            y="426"
            width="728"
            height="25"
            style="fill:#760000; fill-opacity:1.0;"
          />
<rect
            x="133"
            y="283"
            width="411"
            height="270"
            style="fill:#ca0000; fill-opacity:1.0;"
          />

</symbol>
<g>
<use xlink:href="#upperleftquad" />
</g>
<g transform="scale(-1 1) translate(-750 0)">
<use xlink:href="#upperleftquad" />
</g>
<g transform="scale(-1 -1) translate(-750 -750)">
<use xlink:href="#upperleftquad" />
</g>
<g transform="scale(1 -1) translate(0 -750)">
<use xlink:href="#upperleftquad" />
</g>
</symbol>
<g>
<use xlink:href="#upperleftquad2" />
</g>
<g transform="scale(-1 1) translate(-1300 0)">
<use xlink:href="#upperleftquad2" />
</g>
<g transform="scale(-1 -1) translate(-1300 -1300)">
<use xlink:href="#upperleftquad2" />
</g>
<g transform="scale(1 -1) translate(0 -1300)">
<use xlink:href="#upperleftquad2" />
</g>
</symbol>
<g>
<use xlink:href="#upperleftquad3" />
</g>
<g transform="scale(-1 1) translate(-2600 0)">
<use xlink:href="#upperleftquad3" />
</g>
<g transform="scale(-1 -1) translate(-2600 -2600)">
<use xlink:href="#upperleftquad3" />
</g>
<g transform="scale(1 -1) translate(0 -2600)">
<use xlink:href="#upperleftquad3" />
</g>
</symbol>
<g transform="scale(1.0 1.0)">
<use xlink:href="#upperleftquad4" />
</g>
</svg>
