<svg
  xmlns="http://www.w3.org/2000/svg"
  xmlns:xlink="http://www.w3.org/1999/xlink"
  width="100%"
  height="100%"
  viewBox="0 0 2600 2600"
  style="stroke-width:0; background-color:#121212;"
>

<symbol id="upperleftquad4">
<symbol id="upperleftquad3">
<symbol id="upperleftquad2">
<symbol id="upperleftquad">

<rect
            x="610"
            y="233"
            width="31"
            height="729"
            style="fill:#3a0000; fill-opacity:1.0;"
          />
<rect
            x="355"
            y="-30"
            width="380"
            height="417"
            style="fill:#9c0000; fill-opacity:1.0;"
          />
<rect
            x="461"
            y="700"
            width="736"
            height="25"
            style="fill:#aaaaaa; fill-opacity:1.0;"
          />
<rect
            x="216"
            y="129"
            width="400"
            height="384"
            style="fill:#629d00; fill-opacity:1.0;"
          />
<rect
            x="122"
            y="248"
            width="738"
            height="22"
            style="fill:#af0000; fill-opacity:1.0;"
          />
<rect
            x="620"
            y="650"
            width="387"
            height="417"
            style="fill:#0000da; fill-opacity:1.0;"
          />
<rect
            x="-57"
            y="-12"
            width="729"
            height="25"
            style="fill:#006000; fill-opacity:1.0;"
          />
<rect
            x="492"
            y="836"
            width="407"
            height="200"
            style="fill:#b0b000; fill-opacity:1.0;"
          />
<rect
            x="456"
            y="207"
            width="31"
            height="722"
            style="fill:#0000ac; fill-opacity:1.0;"
          />
<rect
            x="-87"
            y="38"
            width="348"
            height="259"
            style="fill:#00d64d; fill-opacity:1.0;"
          />
<rect
            x="-89"
            y="714"
            width="29"
            height="725"
            style="fill:#0000d2; fill-opacity:1.0;"
          />
<rect
            x="612"
            y="471"
            width="349"
            height="444"
            style="fill:#629d00; fill-opacity:1.0;"
          />
<rect
            x="-36"
            y="155"
            width="732"
            height="27"
            style="fill:#4a0000; fill-opacity:1.0;"
          />
<rect
            x="484"
            y="39"
            width="307"
            height="253"
            style="fill:#0000da; fill-opacity:1.0;"
          />
<rect
            x="586"
            y="397"
            width="739"
            height="25"
            style="fill:#8600e8; fill-opacity:1.0;"
          />
<rect
            x="-150"
            y="17"
            width="339"
            height="429"
            style="fill:#0000ac; fill-opacity:1.0;"
          />
<rect
            x="765"
            y="579"
            width="730"
            height="27"
            style="fill:#3a0000; fill-opacity:1.0;"
          />
<rect
            x="9"
            y="344"
            width="393"
            height="346"
            style="fill:#0000da; fill-opacity:1.0;"
          />
<rect
            x="148"
            y="333"
            width="35"
            height="725"
            style="fill:#000072; fill-opacity:1.0;"
          />
<rect
            x="580"
            y="476"
            width="368"
            height="314"
            style="fill:#0000da; fill-opacity:1.0;"
          />
<rect
            x="195"
            y="652"
            width="736"
            height="18"
            style="fill:#006c00; fill-opacity:1.0;"
          />
<rect
            x="358"
            y="195"
            width="352"
            height="410"
            style="fill:#000047; fill-opacity:1.0;"
          />
<rect
            x="395"
            y="402"
            width="737"
            height="25"
            style="fill:#00001f; fill-opacity:1.0;"
          />
<rect
            x="467"
            y="567"
            width="387"
            height="191"
            style="fill:#00567d; fill-opacity:1.0;"
          />
<rect
            x="20"
            y="88"
            width="29"
            height="732"
            style="fill:#0000d2; fill-opacity:1.0;"
          />
<rect
            x="76"
            y="327"
            width="407"
            height="360"
            style="fill:#0000d2; fill-opacity:1.0;"
          />
<rect
            x="535"
            y="221"
            width="737"
            height="25"
            style="fill:#3a0000; fill-opacity:1.0;"
          />
<rect
            x="597"
            y="362"
            width="409"
            height="189"
            style="fill:#00d64d; fill-opacity:1.0;"
          />
<rect
            x="193"
            y="98"
            width="37"
            height="720"
            style="fill:#430000; fill-opacity:1.0;"
          />
<rect
            x="851"
            y="780"
            width="323"
            height="402"
            style="fill:#1e0000; fill-opacity:1.0;"
          />
<rect
            x="709"
            y="75"
            width="36"
            height="725"
            style="fill:#a70064; fill-opacity:1.0;"
          />
<rect
            x="389"
            y="142"
            width="353"
            height="214"
            style="fill:#00d64d; fill-opacity:1.0;"
          />
<rect
            x="649"
            y="748"
            width="726"
            height="32"
            style="fill:#00ea84; fill-opacity:1.0;"
          />
<rect
            x="622"
            y="663"
            width="365"
            height="213"
            style="fill:#0000ac; fill-opacity:1.0;"
          />
<rect
            x="252"
            y="336"
            width="38"
            height="725"
            style="fill:#00005d; fill-opacity:1.0;"
          />
<rect
            x="890"
            y="601"
            width="332"
            height="215"
            style="fill:#000047; fill-opacity:1.0;"
          />
<rect
            x="-207"
            y="-70"
            width="31"
            height="721"
            style="fill:#00f900; fill-opacity:1.0;"
          />

</symbol>
<g>
<use xlink:href="#upperleftquad" />
</g>
<g transform="scale(-1 1) translate(-750 0)">
<use xlink:href="#upperleftquad" />
</g>
<g transform="scale(-1 -1) translate(-750 -750)">
<use xlink:href="#upperleftquad" />
</g>
<g transform="scale(1 -1) translate(0 -750)">
<use xlink:href="#upperleftquad" />
</g>
</symbol>
<g>
<use xlink:href="#upperleftquad2" />
</g>
<g transform="scale(-1 1) translate(-1300 0)">
<use xlink:href="#upperleftquad2" />
</g>
<g transform="scale(-1 -1) translate(-1300 -1300)">
<use xlink:href="#upperleftquad2" />
</g>
<g transform="scale(1 -1) translate(0 -1300)">
<use xlink:href="#upperleftquad2" />
</g>
</symbol>
<g>
<use xlink:href="#upperleftquad3" />
</g>
<g transform="scale(-1 1) translate(-2600 0)">
<use xlink:href="#upperleftquad3" />
</g>
<g transform="scale(-1 -1) translate(-2600 -2600)">
<use xlink:href="#upperleftquad3" />
</g>
<g transform="scale(1 -1) translate(0 -2600)">
<use xlink:href="#upperleftquad3" />
</g>
</symbol>
<g transform="scale(1.0 1.0)">
<use xlink:href="#upperleftquad4" />
</g>
</svg>
