<svg
  xmlns="http://www.w3.org/2000/svg"
  xmlns:xlink="http://www.w3.org/1999/xlink"
  width="100%"
  height="100%"
  viewBox="0 0 2600 2600"
  style="stroke-width:0; background-color:#121212;"
>

<symbol id="upperleftquad4">
<symbol id="upperleftquad3">
<symbol id="upperleftquad2">
<symbol id="upperleftquad">

<rect
            x="-154"
            y="131"
            width="27"
            height="725"
            style="fill:#4a0000; fill-opacity:1.0;"
          />
<rect
            x="115"
            y="263"
            width="55"
            height="313"
            style="fill:#4a0000; fill-opacity:1.0;"
          />
<rect
            x="26"
            y="314"
            width="726"
            height="26"
            style="fill:#a70064; fill-opacity:1.0;"
          />
<rect
            x="178"
            y="41"
            width="24"
            height="312"
            style="fill:#00005d; fill-opacity:1.0;"
          />
<rect
            x="197"
            y="530"
            width="29"
            height="725"
            style="fill:#000072; fill-opacity:1.0;"
          />
<rect
            x="194"
            y="352"
            width="36"
            height="310"
            style="fill:#fc00ea; fill-opacity:1.0;"
          />
<rect
            x="80"
            y="-4"
            width="730"
            height="22"
            style="fill:#c00000; fill-opacity:1.0;"
          />
<rect
            x="-104"
            y="396"
            width="50"
            height="312"
            style="fill:#003000; fill-opacity:1.0;"
          />
<rect
            x="-78"
            y="445"
            width="28"
            height="725"
            style="fill:#e44200; fill-opacity:1.0;"
          />
<rect
            x="194"
            y="352"
            width="70"
            height="312"
            style="fill:#400000; fill-opacity:1.0;"
          />
<rect
            x="162"
            y="577"
            width="736"
            height="22"
            style="fill:#000072; fill-opacity:1.0;"
          />
<rect
            x="-133"
            y="668"
            width="17"
            height="313"
            style="fill:#006000; fill-opacity:1.0;"
          />
<rect
            x="-203"
            y="396"
            width="732"
            height="25"
            style="fill:#00005d; fill-opacity:1.0;"
          />
<rect
            x="56"
            y="265"
            width="70"
            height="311"
            style="fill:#0000ac; fill-opacity:1.0;"
          />
<rect
            x="-44"
            y="-4"
            width="31"
            height="732"
            style="fill:#00f900; fill-opacity:1.0;"
          />
<rect
            x="-193"
            y="359"
            width="35"
            height="311"
            style="fill:#629d00; fill-opacity:1.0;"
          />
<rect
            x="80"
            y="448"
            width="732"
            height="25"
            style="fill:#2b0000; fill-opacity:1.0;"
          />
<rect
            x="-168"
            y="177"
            width="51"
            height="313"
            style="fill:#d00000; fill-opacity:1.0;"
          />
<rect
            x="114"
            y="577"
            width="39"
            height="722"
            style="fill:#acac00; fill-opacity:1.0;"
          />
<rect
            x="-157"
            y="314"
            width="37"
            height="311"
            style="fill:#0000da; fill-opacity:1.0;"
          />
<rect
            x="209"
            y="752"
            width="27"
            height="725"
            style="fill:#e50000; fill-opacity:1.0;"
          />
<rect
            x="-94"
            y="447"
            width="53"
            height="310"
            style="fill:#e70000; fill-opacity:1.0;"
          />
<rect
            x="191"
            y="532"
            width="732"
            height="30"
            style="fill:#bff800; fill-opacity:1.0;"
          />
<rect
            x="-187"
            y="759"
            width="68"
            height="310"
            style="fill:#af0000; fill-opacity:1.0;"
          />
<rect
            x="183"
            y="220"
            width="732"
            height="25"
            style="fill:#006c00; fill-opacity:1.0;"
          />
<rect
            x="-94"
            y="663"
            width="61"
            height="311"
            style="fill:#d60000; fill-opacity:1.0;"
          />
<rect
            x="17"
            y="396"
            width="29"
            height="734"
            style="fill:#e44200; fill-opacity:1.0;"
          />
<rect
            x="-64"
            y="177"
            width="71"
            height="311"
            style="fill:#bff800; fill-opacity:1.0;"
          />
<rect
            x="11"
            y="623"
            width="729"
            height="25"
            style="fill:#d60000; fill-opacity:1.0;"
          />
<rect
            x="136"
            y="581"
            width="35"
            height="311"
            style="fill:#d60000; fill-opacity:1.0;"
          />
<rect
            x="27"
            y="577"
            width="27"
            height="734"
            style="fill:#d00000; fill-opacity:1.0;"
          />
<rect
            x="-35"
            y="268"
            width="31"
            height="313"
            style="fill:#00a029; fill-opacity:1.0;"
          />
<rect
            x="-1"
            y="314"
            width="729"
            height="25"
            style="fill:#b0b000; fill-opacity:1.0;"
          />
<rect
            x="-99"
            y="618"
            width="20"
            height="311"
            style="fill:#2b0000; fill-opacity:1.0;"
          />
<rect
            x="-66"
            y="314"
            width="37"
            height="720"
            style="fill:#acac00; fill-opacity:1.0;"
          />
<rect
            x="-89"
            y="668"
            width="71"
            height="311"
            style="fill:#4a0000; fill-opacity:1.0;"
          />
<rect
            x="4"
            y="491"
            width="735"
            height="25"
            style="fill:#f600d1; fill-opacity:1.0;"
          />
<rect
            x="112"
            y="177"
            width="49"
            height="313"
            style="fill:#aaaaaa; fill-opacity:1.0;"
          />

</symbol>
<g>
<use xlink:href="#upperleftquad" />
</g>
<g transform="scale(-1 1) translate(-750 0)">
<use xlink:href="#upperleftquad" />
</g>
<g transform="scale(-1 -1) translate(-750 -750)">
<use xlink:href="#upperleftquad" />
</g>
<g transform="scale(1 -1) translate(0 -750)">
<use xlink:href="#upperleftquad" />
</g>
</symbol>
<g>
<use xlink:href="#upperleftquad2" />
</g>
<g transform="scale(-1 1) translate(-1300 0)">
<use xlink:href="#upperleftquad2" />
</g>
<g transform="scale(-1 -1) translate(-1300 -1300)">
<use xlink:href="#upperleftquad2" />
</g>
<g transform="scale(1 -1) translate(0 -1300)">
<use xlink:href="#upperleftquad2" />
</g>
</symbol>
<g>
<use xlink:href="#upperleftquad3" />
</g>
<g transform="scale(-1 1) translate(-2600 0)">
<use xlink:href="#upperleftquad3" />
</g>
<g transform="scale(-1 -1) translate(-2600 -2600)">
<use xlink:href="#upperleftquad3" />
</g>
<g transform="scale(1 -1) translate(0 -2600)">
<use xlink:href="#upperleftquad3" />
</g>
</symbol>
<g transform="scale(1.0 1.0)">
<use xlink:href="#upperleftquad4" />
</g>
</svg>
