<svg
  xmlns="http://www.w3.org/2000/svg"
  xmlns:xlink="http://www.w3.org/1999/xlink"
  width="100%"
  height="100%"
  viewBox="0 0 2600 2600"
  style="stroke-width:0; background-color:#121212;"
>

<symbol id="upperleftquad4">
<symbol id="upperleftquad3">
<symbol id="upperleftquad2">
<symbol id="upperleftquad">

<rect
            x="-50"
            y="-224"
            width="737"
            height="25"
            style="fill:#ae0025; fill-opacity:1.0;"
          />
<rect
            x="666"
            y="-22"
            width="368"
            height="95"
            style="fill:#ae0025; fill-opacity:1.0;"
          />
<rect
            x="-115"
            y="414"
            width="35"
            height="724"
            style="fill:#ae0025; fill-opacity:1.0;"
          />
<rect
            x="442"
            y="418"
            width="277"
            height="95"
            style="fill:#ae0025; fill-opacity:1.0;"
          />
<rect
            x="-145"
            y="101"
            width="726"
            height="25"
            style="fill:#ae0025; fill-opacity:1.0;"
          />
<rect
            x="819"
            y="269"
            width="384"
            height="355"
            style="fill:#ae0025; fill-opacity:1.0;"
          />
<rect
            x="490"
            y="26"
            width="33"
            height="719"
            style="fill:#ae0025; fill-opacity:1.0;"
          />
<rect
            x="649"
            y="476"
            width="292"
            height="149"
            style="fill:#ae0025; fill-opacity:1.0;"
          />

</symbol>
<g>
<use xlink:href="#upperleftquad" />
</g>
<g transform="scale(-1 1) translate(-750 0)">
<use xlink:href="#upperleftquad" />
</g>
<g transform="scale(-1 -1) translate(-750 -750)">
<use xlink:href="#upperleftquad" />
</g>
<g transform="scale(1 -1) translate(0 -750)">
<use xlink:href="#upperleftquad" />
</g>
</symbol>
<g>
<use xlink:href="#upperleftquad2" />
</g>
<g transform="scale(-1 1) translate(-1300 0)">
<use xlink:href="#upperleftquad2" />
</g>
<g transform="scale(-1 -1) translate(-1300 -1300)">
<use xlink:href="#upperleftquad2" />
</g>
<g transform="scale(1 -1) translate(0 -1300)">
<use xlink:href="#upperleftquad2" />
</g>
</symbol>
<g>
<use xlink:href="#upperleftquad3" />
</g>
<g transform="scale(-1 1) translate(-2600 0)">
<use xlink:href="#upperleftquad3" />
</g>
<g transform="scale(-1 -1) translate(-2600 -2600)">
<use xlink:href="#upperleftquad3" />
</g>
<g transform="scale(1 -1) translate(0 -2600)">
<use xlink:href="#upperleftquad3" />
</g>
</symbol>
<g transform="scale(1.0 1.0)">
<use xlink:href="#upperleftquad4" />
</g>
</svg>
