<svg xmlns="http://www.w3.org/2000/svg" viewBox="0 0 220 215.12"><defs><style>.cls-1,.cls-9{fill:#fff;}.cls-1,.cls-2,.cls-3,.cls-4,.cls-5,.cls-6{stroke:#231f20;stroke-miterlimit:10;stroke-width:3px;}.cls-2{fill:#f1f2f2;}.cls-3{fill:#e6e7e8;}.cls-4{fill:#dcddde;}.cls-5{fill:#d1d3d4;}.cls-6{fill:#bcbec0;}.cls-7{font-size:85px;letter-spacing:0.1em;}.cls-7,.cls-8{fill:#231f20;}.cls-7,.cls-9{font-family:Consolas-Bold, Consolas;font-weight:700;}.cls-9{font-size:40px;}.cls-10{fill:#414042;}</style></defs><g id="Layer_5" data-name="Layer 5"><rect class="cls-1" x="231.05" y="323.12" width="130" height="130" transform="translate(-276.29 -204.23) rotate(-15)"/><rect class="cls-2" x="231.05" y="323.12" width="130" height="130" transform="translate(-340.32 -94.05) rotate(-30)"/><rect class="cls-3" x="231.05" y="323.12" width="130" height="130" transform="translate(49.25 578.37) rotate(-135.5)"/><rect class="cls-4" x="231.05" y="323.12" width="130" height="130" transform="translate(-374.02 156.37) rotate(-60)"/><rect class="cls-5" x="231.05" y="323.12" width="130" height="130" transform="translate(-341.39 279.55) rotate(-75)"/><rect class="cls-6" x="45.13" y="29.04" width="130" height="130"/></g><g id="TINY"><text class="cls-7" transform="translate(51.42 90.69) scale(1.15 1)">TI<tspan x="0" y="62">NY</tspan></text></g><g id="BOXES"><rect class="cls-8" y="171.22" width="39.9" height="39.9"/><text class="cls-9" transform="translate(8.95 202.82)">B</text><rect class="cls-10" x="45.48" y="163.51" width="39.9" height="39.9"/><text class="cls-9" transform="translate(54.44 195.11)">O</text><rect class="cls-8" x="90.5" y="168.16" width="39.9" height="39.9"/><text class="cls-9" transform="translate(99.45 199.76)">X</text><rect class="cls-10" x="135.08" y="161.52" width="39.9" height="39.9"/><text class="cls-9" transform="translate(144.04 193.12)">E</text><rect class="cls-8" x="180.1" y="169.88" width="39.9" height="39.9"/><text class="cls-9" transform="translate(189.05 201.48)">S</text></g></svg>